<svg xmlns="http://www.w3.org/2000/svg" version="1.1" xmlns:xlink="http://www.w3.org/1999/xlink" xmlns:svgjs="http://svgjs.dev/svgjs" width="1440" height="560" preserveAspectRatio="none" viewBox="0 0 1440 560">
    <g mask="url(&quot;#SvgjsMask1000&quot;)" fill="none">
        <rect width="1440" height="560" x="0" y="0" fill="#1e1b4b"></rect>
        <path d="M -780.2567956550738,209 C -684.26,266 -492.26,500.4 -300.25679565507386,494 C -108.26,487.6 -12.26,187.4 179.74320434492614,177 C 371.74,166.6 467.74,452 659.7432043449262,442 C 851.74,432 983.69,149.8 1139.7432043449262,127 C 1295.79,104.2 1379.95,287.8 1440,328" stroke="rgba(51, 121, 194, 0.58)" stroke-width="2"></path>
        <path d="M -656.801647386153,237 C -560.8,289.8 -368.8,529.2 -176.80164738615306,501 C 15.2,472.8 111.2,115.4 303.19835261384696,96 C 495.2,76.6 591.2,384.8 783.198352613847,404 C 975.2,423.2 1131.84,203.6 1263.198352613847,192 C 1394.56,180.4 1404.64,315.2 1440,346" stroke="rgba(51, 121, 194, 0.58)" stroke-width="2"></path>
        <path d="M -90.39951183301355,258 C 5.6,287.8 197.6,442.2 389.60048816698645,407 C 581.6,371.8 677.6,72.8 869.6004881669865,82 C 1061.6,91.2 1157.6,421.4 1349.6004881669865,453 C 1541.6,484.6 1811.52,249 1829.6004881669865,240 C 1847.68,231 1517.92,374.4 1440,408" stroke="rgba(51, 121, 194, 0.58)" stroke-width="2"></path>
        <path d="M -192.3168753581529,196 C -96.32,242.4 95.68,412.6 287.6831246418471,428 C 479.68,443.4 575.68,288.6 767.6831246418471,273 C 959.68,257.4 1055.68,367.2 1247.6831246418471,350 C 1439.68,332.8 1689.22,178.8 1727.6831246418471,187 C 1766.15,195.2 1497.54,350.2 1440,391" stroke="rgba(51, 121, 194, 0.58)" stroke-width="2"></path>
    </g>
    <defs>
        <mask id="SvgjsMask1000">
            <rect width="1440" height="560" fill="#ffffff"></rect>
        </mask>
    </defs>
</svg>