<?xml version="1.0" standalone="no"?>
<!DOCTYPE svg PUBLIC "-//W3C//DTD SVG 20010904//EN"
 "http://www.w3.org/TR/2001/REC-SVG-20010904/DTD/svg10.dtd">
<svg version="1.0" xmlns="http://www.w3.org/2000/svg"
 width="1920.000000pt" height="880.000000pt" viewBox="0 0 1920.000000 880.000000"
 preserveAspectRatio="xMidYMid meet">

<g transform="translate(0.000000,880.000000) scale(0.100000,-0.100000)"
fill="#000000" stroke="none">
<path d="M1197 8435 c-18 -18 -13 -40 11 -50 23 -9 49 21 36 42 -15 24 -29 26
-47 8z"/>
<path d="M18550 8400 c0 -11 5 -20 10 -20 6 0 10 9 10 20 0 11 -4 20 -10 20
-5 0 -10 -9 -10 -20z"/>
<path d="M390 8285 l0 -125 70 0 c68 0 70 1 70 25 0 23 -4 25 -40 25 l-40 0 0
100 0 100 -30 0 -30 0 0 -125z"/>
<path d="M4204 8397 c-2 -8 -4 -52 -2 -98 l3 -84 95 0 95 0 0 95 0 95 -93 3
c-71 2 -94 0 -98 -11z m56 -87 c0 -73 -2 -80 -20 -80 -18 0 -20 7 -20 80 0 73
2 80 20 80 18 0 20 -7 20 -80z m120 0 l0 -80 -50 0 -50 0 0 80 0 80 50 0 50 0
0 -80z"/>
<path d="M18482 8379 c2 -7 10 -15 17 -17 8 -3 12 1 9 9 -2 7 -10 15 -17 17
-8 3 -12 -1 -9 -9z"/>
<path d="M18615 8379 c-4 -6 -5 -13 -2 -16 7 -7 27 6 27 18 0 12 -17 12 -25
-2z"/>
<path d="M570 8282 c0 -69 3 -81 23 -100 25 -24 57 -28 88 -12 13 7 19 7 19 0
0 -5 14 -10 30 -10 l30 0 0 100 0 100 -30 0 -29 0 -3 -72 c-3 -68 -5 -73 -26
-76 -40 -6 -52 14 -52 84 0 62 -1 64 -25 64 -25 0 -25 -1 -25 -78z"/>
<path d="M810 8260 l0 -100 30 0 29 0 3 73 c3 67 5 72 26 75 40 6 52 -14 52
-84 0 -62 1 -64 25 -64 24 0 25 3 25 56 0 66 13 94 43 94 37 0 47 -19 47 -87
0 -61 1 -63 25 -63 25 0 25 1 25 78 0 69 -3 81 -23 100 -27 26 -73 29 -98 6
-16 -15 -20 -15 -41 0 -26 18 -61 21 -89 6 -13 -7 -19 -7 -19 0 0 5 -13 10
-30 10 l-30 0 0 -100z"/>
<path d="M1190 8260 l0 -100 30 0 30 0 0 100 0 100 -30 0 -30 0 0 -100z"/>
<path d="M1300 8260 l0 -100 25 0 c24 0 25 3 25 56 0 66 13 94 43 94 37 0 47
-19 47 -87 0 -61 1 -63 25 -63 25 0 25 1 25 78 0 65 -3 82 -20 100 -23 24 -60
28 -93 11 -16 -9 -22 -9 -25 0 -2 6 -15 11 -28 11 -24 0 -24 -1 -24 -100z"/>
<path d="M1559 8331 c-64 -65 -20 -171 71 -171 33 0 48 6 71 29 64 65 20 171
-71 171 -33 0 -48 -6 -71 -29z m99 -33 c17 -17 15 -63 -3 -78 -8 -7 -25 -10
-40 -6 -21 5 -25 12 -25 45 0 21 3 41 7 44 11 11 48 8 61 -5z"/>
<path d="M18526 8344 c-31 -30 -9 -84 34 -84 24 0 50 26 50 50 0 24 -26 50
-50 50 -10 0 -26 -7 -34 -16z m59 -34 c0 -18 -6 -26 -23 -28 -24 -4 -38 18
-28 44 3 9 15 14 28 12 17 -2 23 -10 23 -28z"/>
<path d="M18450 8310 c0 -5 9 -10 20 -10 11 0 20 5 20 10 0 6 -9 10 -20 10
-11 0 -20 -4 -20 -10z"/>
<path d="M18630 8310 c0 -5 9 -10 20 -10 11 0 20 5 20 10 0 6 -9 10 -20 10
-11 0 -20 -4 -20 -10z"/>
<path d="M18485 8249 c-4 -6 -5 -13 -2 -16 7 -7 27 6 27 18 0 12 -17 12 -25
-2z"/>
<path d="M18612 8249 c2 -7 10 -15 17 -17 8 -3 12 1 9 9 -2 7 -10 15 -17 17
-8 3 -12 -1 -9 -9z"/>
<path d="M18550 8220 c0 -11 5 -20 10 -20 6 0 10 9 10 20 0 11 -4 20 -10 20
-5 0 -10 -9 -10 -20z"/>
<path d="M680 7610 c0 -5 5 -10 11 -10 5 0 7 5 4 10 -3 6 -8 10 -11 10 -2 0
-4 -4 -4 -10z"/>
<path d="M1025 7611 c-3 -5 -1 -12 5 -16 5 -3 10 1 10 9 0 18 -6 21 -15 7z"/>
<path d="M630 7545 c0 -37 4 -65 10 -65 6 0 10 28 10 65 0 37 -4 65 -10 65 -6
0 -10 -28 -10 -65z"/>
<path d="M407 7558 c-8 -24 -18 -51 -22 -60 -4 -11 -3 -18 4 -18 6 0 11 7 11
15 0 22 56 20 69 -2 15 -26 13 -6 -6 54 -9 29 -22 53 -29 53 -7 0 -19 -19 -27
-42z m42 -25 c1 -7 -8 -13 -19 -13 -23 0 -23 0 -9 37 10 26 12 27 19 8 5 -11
9 -26 9 -32z"/>
<path d="M957 7586 c-3 -8 -4 -22 -2 -33 2 -10 6 -30 10 -45 5 -26 35 -41 35
-18 0 6 -4 10 -10 10 -15 0 -12 58 2 62 9 3 8 9 -4 21 -20 21 -24 21 -31 3z"/>
<path d="M510 7503 c0 -47 4 -72 10 -68 6 3 10 17 10 30 0 18 4 22 20 18 24
-6 60 22 60 47 0 26 -31 47 -67 47 l-33 0 0 -74z m78 33 c5 -26 -26 -50 -45
-35 -14 12 -17 41 -6 53 13 13 48 1 51 -18z"/>
<path d="M680 7530 c0 -27 5 -50 10 -50 6 0 10 23 10 50 0 28 -4 50 -10 50 -5
0 -10 -22 -10 -50z"/>
<path d="M734 7555 c-15 -23 -15 -27 0 -50 18 -28 47 -32 66 -10 14 17 0 21
-16 5 -16 -16 -44 0 -44 25 0 29 21 47 40 35 23 -15 34 -12 20 5 -19 22 -48
18 -66 -10z"/>
<path d="M845 7563 c-17 -17 -19 -37 -5 -63 8 -14 20 -19 50 -17 l40 1 0 46
c0 46 0 46 -35 47 -20 1 -42 -6 -50 -14z m64 -27 c4 -23 -24 -47 -45 -39 -8 3
-14 18 -14 35 0 26 3 29 27 26 18 -2 29 -10 32 -22z"/>
<path d="M1033 7530 c0 -30 2 -43 4 -27 2 15 2 39 0 55 -2 15 -4 2 -4 -28z"/>
<path d="M1088 7569 c-21 -12 -24 -59 -6 -77 7 -7 21 -12 33 -12 28 0 45 19
45 50 0 44 -33 62 -72 39z m60 -36 c4 -30 -31 -49 -52 -27 -18 18 -18 17 -10
39 10 25 58 16 62 -12z"/>
<path d="M1191 7526 c1 -28 3 -42 6 -31 2 11 6 30 9 43 3 17 10 22 27 20 18
-2 23 -11 25 -40 2 -21 8 -38 14 -38 11 0 5 76 -7 88 -3 3 -22 7 -40 7 l-35 2
1 -51z"/>
<path d="M14912 7462 c-14 -2 -31 -16 -40 -33 -10 -16 -20 -29 -24 -29 -12 0
-10 -38 2 -45 6 -3 10 -33 10 -66 0 -56 1 -59 25 -59 24 0 25 3 25 60 0 47 3
60 15 60 22 0 20 50 -2 50 -17 1 -17 2 0 15 26 19 18 51 -11 47z"/>
<path d="M14964 7455 c-4 -9 -2 -21 4 -27 16 -16 47 -5 47 17 0 26 -42 34 -51
10z"/>
<path d="M15050 7340 l0 -110 25 0 25 0 0 110 0 110 -25 0 -25 0 0 -110z"/>
<path d="M14350 7335 l0 -105 25 0 c23 0 25 4 25 40 0 39 1 40 35 40 42 0 75
29 75 65 0 44 -32 65 -100 65 l-60 0 0 -105z m105 40 c0 -14 -8 -21 -27 -23
-24 -3 -28 0 -28 23 0 23 4 26 28 23 19 -2 27 -9 27 -23z"/>
<path d="M17513 7420 c-4 -14 -14 -20 -33 -20 -33 0 -49 -32 -30 -55 10 -12
10 -18 0 -30 -19 -23 -3 -55 30 -55 19 0 29 -6 33 -20 3 -12 14 -20 27 -20 13
0 24 8 27 20 4 14 14 20 33 20 33 0 49 32 30 55 -10 12 -10 18 0 30 19 23 3
55 -30 55 -19 0 -29 6 -33 20 -3 12 -14 20 -27 20 -13 0 -24 -8 -27 -20z m42
-20 c4 -14 15 -20 36 -20 33 0 34 -2 17 -30 -10 -16 -10 -24 0 -40 17 -28 16
-30 -17 -30 -21 0 -32 -6 -36 -20 -3 -11 -10 -20 -15 -20 -5 0 -12 9 -15 20
-4 14 -15 20 -36 20 -33 0 -34 2 -17 30 10 16 10 24 0 40 -17 28 -16 30 17 30
21 0 32 6 36 20 3 11 10 20 15 20 5 0 12 -9 15 -20z"/>
<path d="M17510 7355 c-26 -32 13 -81 48 -59 34 22 22 74 -18 74 -10 0 -23 -7
-30 -15z m46 -16 c10 -17 -13 -36 -27 -22 -12 12 -4 33 11 33 5 0 12 -5 16
-11z"/>
<path d="M18210 7405 c0 -9 5 -15 11 -13 6 2 11 8 11 13 0 5 -5 11 -11 13 -6
2 -11 -4 -11 -13z"/>
<path d="M17805 7390 c-23 -26 -14 -46 30 -64 19 -8 35 -20 35 -26 0 -17 -29
-23 -45 -10 -22 19 -41 7 -21 -13 34 -33 86 -16 86 29 0 17 -9 25 -35 34 -34
11 -46 32 -25 45 5 3 19 1 31 -5 27 -15 39 -2 15 16 -27 19 -50 18 -71 -6z"/>
<path d="M14540 7315 c0 -84 0 -85 24 -85 23 0 25 4 28 53 3 45 6 52 26 55 17
3 22 10 22 33 0 32 -3 34 -31 19 -13 -7 -19 -7 -19 0 0 5 -11 10 -25 10 -25 0
-25 -1 -25 -85z"/>
<path d="M14687 7380 c-30 -24 -40 -60 -27 -96 14 -36 38 -53 77 -54 45 0 62
9 78 41 22 42 18 67 -14 100 -35 35 -77 38 -114 9z m77 -36 c9 -8 16 -22 16
-29 0 -21 -31 -47 -47 -41 -8 3 -17 6 -19 6 -10 0 -3 57 8 68 16 16 23 15 42
-4z"/>
<path d="M14960 7316 l0 -86 30 0 31 0 -3 83 c-3 81 -3 82 -30 85 l-28 3 0
-85z"/>
<path d="M15173 7388 c-28 -13 -47 -60 -39 -93 15 -59 84 -85 134 -49 45 32
10 62 -38 32 -16 -10 -23 -10 -37 5 -16 16 -14 17 45 17 60 0 62 1 62 25 0 56
-70 91 -127 63z m67 -43 c11 -13 7 -15 -25 -15 -32 0 -36 2 -25 15 7 8 18 15
25 15 7 0 18 -7 25 -15z"/>
<path d="M18058 7388 c-3 -7 -2 -38 1 -68 5 -47 9 -55 29 -58 12 -2 22 1 22 7
0 6 -7 11 -15 11 -11 0 -15 11 -15 40 0 29 4 40 15 40 8 0 15 5 15 10 0 6 -7
10 -15 10 -8 0 -15 5 -15 10 0 14 -17 12 -22 -2z"/>
<path d="M18133 7381 c-6 -10 -8 -22 -3 -27 5 -5 10 -27 12 -49 2 -33 7 -41
26 -43 12 -2 22 1 22 7 0 6 -7 11 -15 11 -11 0 -15 11 -15 40 0 31 4 40 17 40
14 0 14 3 -5 20 -26 24 -25 24 -39 1z"/>
<path d="M17942 7364 c-41 -28 -21 -104 28 -104 25 0 50 10 50 21 0 5 -16 7
-36 6 -22 -1 -39 3 -41 11 -3 8 9 12 41 12 39 0 46 3 46 19 0 20 -34 51 -55
51 -6 0 -21 -7 -33 -16z m58 -19 c11 -13 7 -15 -25 -15 -32 0 -36 2 -25 15 7
8 18 15 25 15 7 0 18 -7 25 -15z"/>
<path d="M18210 7320 c0 -33 4 -60 10 -60 6 0 10 27 10 60 0 33 -4 60 -10 60
-6 0 -10 -27 -10 -60z"/>
<path d="M18270 7319 c0 -33 4 -59 10 -59 6 0 10 17 10 39 0 46 22 70 45 51 9
-7 15 -29 15 -51 0 -22 5 -39 10 -39 15 0 12 97 -2 106 -7 5 -30 9 -50 10
l-38 2 0 -59z"/>
<path d="M18419 7370 c-26 -15 -32 -58 -13 -87 13 -21 21 -24 50 -20 37 6 46
-10 19 -33 -13 -11 -20 -11 -40 0 -35 19 -43 5 -10 -16 25 -16 30 -16 54 -3
24 14 26 20 29 92 2 49 -1 77 -8 77 -5 0 -10 -5 -10 -10 0 -7 -6 -7 -19 0 -24
12 -31 12 -52 0z m52 -20 c36 -20 13 -76 -28 -68 -22 4 -29 43 -13 64 15 17
16 17 41 4z"/>
<path d="M18555 7366 c-25 -18 -13 -44 26 -58 22 -8 28 -13 20 -21 -9 -9 -17
-8 -32 1 -25 16 -37 8 -19 -13 24 -28 80 -13 80 23 0 7 -16 20 -35 28 -20 8
-33 19 -30 24 8 13 35 13 35 0 0 -5 7 -10 15 -10 21 0 19 17 -4 30 -26 13 -33
13 -56 -4z"/>
<path d="M9958 7319 c-10 -5 -18 -16 -18 -24 0 -19 34 -37 54 -29 21 8 21 50
0 58 -19 7 -15 8 -36 -5z"/>
<path d="M10930 7316 c-27 -33 18 -72 48 -42 13 13 14 20 6 34 -15 23 -38 26
-54 8z"/>
<path d="M4560 7170 l0 -130 25 0 25 0 0 130 0 130 -25 0 -25 0 0 -130z"/>
<path d="M5760 7170 l0 -130 24 0 c13 0 26 5 28 11 3 9 9 9 25 0 75 -40 147
33 122 124 -16 58 -67 78 -131 50 -16 -6 -18 -1 -18 34 0 37 -2 41 -25 41
l-25 0 0 -130z m134 4 c31 -30 9 -84 -34 -84 -11 0 -27 11 -36 25 -15 23 -15
27 0 50 19 29 47 32 70 9z"/>
<path d="M6860 7170 l0 -130 30 0 c21 0 30 5 30 17 0 15 1 15 18 0 35 -32 95
-20 117 24 27 52 10 137 -30 153 -25 9 -73 7 -80 -4 -13 -22 -25 -8 -25 30 0
38 -2 40 -30 40 l-30 0 0 -130z m138 8 c17 -17 15 -63 -3 -78 -22 -18 -64 -4
-71 24 -12 50 40 88 74 54z"/>
<path d="M8350 7170 l0 -130 30 0 30 0 0 64 c0 70 12 90 52 84 21 -3 23 -8 26
-75 l3 -73 29 0 30 0 0 74 c0 90 -21 126 -75 126 -19 0 -37 -4 -40 -10 -13
-22 -25 -8 -25 30 0 38 -2 40 -30 40 l-30 0 0 -130z"/>
<path d="M9840 7260 c0 -37 -2 -40 -19 -30 -35 18 -76 12 -102 -16 -19 -20
-24 -36 -24 -76 0 -42 4 -53 28 -74 30 -26 66 -31 98 -14 13 7 19 7 19 0 0 -5
14 -10 30 -10 l30 0 0 130 0 130 -30 0 c-28 0 -30 -2 -30 -40z m-12 -82 c17
-17 15 -63 -3 -78 -22 -18 -64 -4 -71 24 -12 50 40 88 74 54z"/>
<path d="M4130 7270 c-25 -25 -26 -72 -2 -93 10 -9 36 -23 58 -30 27 -10 40
-21 42 -35 3 -18 -2 -22 -22 -22 -14 0 -28 5 -31 10 -10 16 -65 12 -65 -4 0
-25 50 -56 90 -56 56 0 92 32 88 79 -3 33 -8 38 -60 64 -57 27 -73 52 -43 64
9 3 24 -2 34 -11 21 -19 71 -21 71 -3 0 8 -10 23 -23 35 -31 30 -108 31 -137
2z"/>
<path d="M5540 7265 c0 -14 -4 -25 -10 -25 -5 0 -10 -11 -10 -25 0 -14 4 -25
9 -25 5 0 11 -25 13 -57 5 -62 30 -93 74 -93 19 0 24 5 24 24 0 15 -7 26 -20
29 -16 4 -20 14 -20 51 0 39 3 46 20 46 15 0 20 7 20 25 0 18 -5 25 -20 25
-15 0 -20 7 -20 25 0 21 -5 25 -30 25 -25 0 -30 -4 -30 -25z"/>
<path d="M8020 7209 c0 -44 -5 -89 -10 -100 -13 -23 -36 -25 -44 -4 -9 23 -56
19 -56 -5 0 -55 97 -81 138 -37 20 21 22 34 22 125 l0 102 -25 0 c-25 0 -25
-1 -25 -81z"/>
<path d="M8910 7166 l0 -126 63 0 c80 0 126 22 151 73 23 48 15 96 -24 140
-27 30 -33 32 -109 35 l-81 4 0 -126z m136 66 c16 -11 34 -48 34 -72 0 -31
-44 -70 -80 -70 l-30 0 0 75 0 75 33 0 c17 0 37 -4 43 -8z"/>
<path d="M10130 7165 l0 -125 70 0 c68 0 70 1 70 25 0 23 -4 25 -40 25 l-40 0
0 100 0 100 -30 0 -30 0 0 -125z"/>
<path d="M4355 7215 c-20 -19 -25 -34 -25 -72 0 -26 6 -55 13 -64 32 -42 99
-51 141 -18 41 32 33 43 -25 35 -33 -5 -56 -3 -65 5 -27 22 -14 29 56 29 l70
0 0 29 c0 73 -111 111 -165 56z m105 -45 c0 -6 -19 -10 -42 -10 l-43 1 23 19
c18 15 28 17 43 10 10 -6 19 -15 19 -20z"/>
<path d="M4679 7214 c-19 -20 -24 -36 -24 -76 0 -42 4 -53 28 -74 30 -26 66
-31 98 -14 13 7 19 7 19 0 0 -5 14 -10 30 -10 l30 0 0 100 0 100 -30 0 c-16 0
-30 -5 -30 -10 0 -7 -6 -7 -19 0 -35 18 -76 12 -102 -16z m109 -36 c17 -17 15
-63 -3 -78 -22 -18 -64 -4 -71 24 -12 50 40 88 74 54z"/>
<path d="M4910 7140 l0 -100 30 0 29 0 3 73 c3 67 5 72 26 75 40 6 52 -14 52
-84 0 -62 1 -64 25 -64 23 0 25 3 25 49 0 70 14 101 44 101 33 0 46 -26 46
-94 0 -53 1 -56 25 -56 25 0 25 1 25 80 0 67 -3 83 -20 100 -24 24 -76 26
-101 4 -16 -15 -20 -15 -41 0 -26 18 -61 21 -89 6 -13 -7 -19 -7 -19 0 0 5
-13 10 -30 10 l-30 0 0 -100z"/>
<path d="M5305 7215 c-19 -18 -25 -35 -25 -65 0 -46 21 -94 45 -104 27 -10 70
-7 84 7 11 10 14 10 18 0 3 -7 16 -13 29 -13 24 0 24 1 24 100 0 99 0 100 -24
100 -13 0 -26 -6 -29 -12 -4 -10 -7 -10 -18 0 -22 21 -77 15 -104 -13z m109
-41 c30 -30 9 -84 -33 -84 -25 0 -41 20 -41 50 0 47 42 66 74 34z"/>
<path d="M6023 7216 c-24 -21 -28 -32 -28 -76 0 -44 4 -55 28 -76 46 -39 122
-30 148 17 10 20 9 21 -52 17 -54 -3 -64 0 -67 15 -3 15 5 17 69 17 l72 0 -7
33 c-14 73 -105 103 -163 53z m88 -26 c31 -17 22 -30 -21 -30 -42 0 -52 12
-22 29 21 13 20 13 43 1z"/>
<path d="M6220 7140 l0 -100 30 0 c30 0 30 0 30 58 0 60 11 82 42 82 13 0 18
8 18 30 0 34 -6 36 -38 14 -20 -14 -22 -14 -22 0 0 11 -10 16 -30 16 l-30 0 0
-100z"/>
<path d="M6395 7215 c-20 -19 -25 -34 -25 -75 0 -85 54 -120 133 -85 24 10 23
-16 -2 -46 -19 -24 -20 -24 -54 -6 -19 10 -43 17 -54 15 -32 -5 -11 -46 33
-64 48 -20 97 -11 124 23 18 23 20 40 20 144 l0 119 -24 0 c-13 0 -26 -6 -29
-12 -4 -10 -7 -10 -18 0 -22 21 -77 15 -104 -13z m101 -33 c34 -23 15 -92 -26
-92 -11 0 -26 11 -35 24 -22 34 -3 76 35 76 8 0 20 -4 26 -8z"/>
<path d="M6635 7208 c-23 -27 -26 -39 -22 -76 6 -55 39 -92 82 -92 17 0 37 6
44 13 11 10 14 10 18 0 3 -7 18 -13 34 -13 l29 0 0 100 0 100 -30 0 c-16 0
-30 -5 -30 -10 0 -7 -6 -7 -19 0 -38 20 -78 12 -106 -22z m113 -30 c7 -7 12
-24 12 -38 0 -31 -17 -50 -45 -50 -28 0 -45 19 -45 50 0 31 17 50 45 50 12 0
26 -5 33 -12z"/>
<path d="M7110 7162 c0 -69 3 -81 23 -100 26 -24 57 -28 90 -11 16 9 22 9 25
0 2 -6 15 -11 28 -11 24 0 24 1 24 100 l0 100 -25 0 c-24 0 -25 -3 -25 -56 0
-67 -13 -94 -45 -94 -32 0 -45 27 -45 94 0 53 -1 56 -25 56 -25 0 -25 -1 -25
-78z"/>
<path d="M7350 7140 l0 -100 30 0 30 0 0 63 c0 67 10 87 46 87 28 0 34 -17 34
-91 0 -59 0 -59 30 -59 l30 0 0 74 c0 59 -4 78 -21 100 -22 28 -64 35 -100 16
-13 -7 -19 -7 -19 0 0 5 -13 10 -30 10 l-30 0 0 -100z"/>
<path d="M7609 7214 c-19 -20 -24 -36 -24 -76 0 -42 4 -53 28 -74 30 -26 66
-31 98 -14 16 9 19 7 19 -14 0 -15 -8 -30 -20 -36 -22 -12 -60 -5 -60 11 0 5
-13 9 -30 9 -36 0 -38 -10 -6 -47 21 -24 32 -28 75 -28 39 0 56 5 73 23 21 21
23 33 26 147 l4 125 -31 0 c-17 0 -31 -5 -31 -10 0 -7 -6 -7 -19 0 -35 18 -76
12 -102 -16z m109 -36 c17 -17 15 -63 -3 -78 -22 -18 -64 -4 -71 24 -12 50 40
88 74 54z"/>
<path d="M8145 7216 c-63 -63 -34 -161 51 -173 84 -11 140 54 114 132 -15 46
-44 65 -98 65 -32 0 -49 -6 -67 -24z m107 -51 c16 -35 -3 -75 -35 -75 -30 0
-47 18 -47 50 0 52 61 71 82 25z"/>
<path d="M8600 7140 l0 -100 25 0 c23 0 25 3 25 49 0 70 14 101 44 101 33 0
46 -26 46 -94 0 -53 1 -56 25 -56 25 0 25 1 25 80 0 67 -3 83 -20 100 -22 22
-60 26 -93 9 -16 -9 -22 -9 -25 0 -2 6 -15 11 -28 11 -24 0 -24 -1 -24 -100z"/>
<path d="M9215 7228 c-34 -19 -44 -41 -45 -90 0 -40 4 -50 31 -72 69 -59 169
-15 169 74 0 57 -42 100 -97 100 -21 0 -47 -6 -58 -12z m83 -50 c17 -17 15
-63 -3 -78 -21 -17 -61 -5 -68 21 -9 34 9 69 36 69 13 0 28 -5 35 -12z"/>
<path d="M9425 7215 c-20 -19 -25 -34 -25 -72 0 -26 6 -55 13 -64 32 -42 99
-51 141 -18 41 32 33 43 -25 35 -33 -5 -56 -3 -65 5 -27 22 -14 29 56 29 l70
0 0 29 c0 73 -111 111 -165 56z m105 -45 c0 -6 -19 -10 -42 -10 l-43 1 23 19
c18 15 28 17 43 10 10 -6 19 -15 19 -20z"/>
<path d="M9950 7140 l0 -100 30 0 30 0 0 100 0 100 -30 0 -30 0 0 -100z"/>
<path d="M10300 7165 c0 -67 3 -79 25 -100 26 -27 72 -33 94 -12 11 10 14 10
18 0 3 -7 18 -13 34 -13 l29 0 0 100 0 100 -30 0 -30 0 0 -64 c0 -70 -12 -90
-52 -84 -21 3 -23 8 -26 76 l-3 72 -29 0 -30 0 0 -75z"/>
<path d="M10540 7140 l0 -100 30 0 30 0 0 64 c0 70 12 90 52 84 21 -3 23 -8
26 -75 l3 -73 29 0 c29 0 29 0 32 66 2 51 7 70 21 78 34 21 52 -4 55 -78 3
-66 3 -66 32 -66 l30 0 0 75 c0 67 -3 79 -25 100 -28 29 -70 32 -103 9 -21
-15 -25 -15 -41 0 -20 18 -63 21 -92 6 -13 -7 -19 -7 -19 0 0 5 -13 10 -30 10
l-30 0 0 -100z"/>
<path d="M10930 7140 l0 -100 30 0 30 0 0 100 0 100 -30 0 -30 0 0 -100z"/>
<path d="M11030 7140 l0 -100 30 0 30 0 0 63 c0 67 10 87 46 87 28 0 34 -17
34 -91 0 -59 0 -59 30 -59 l30 0 0 74 c0 59 -4 78 -21 100 -22 28 -64 35 -100
16 -13 -7 -19 -7 -19 0 0 5 -13 10 -30 10 l-30 0 0 -100z"/>
<path d="M11314 7228 c-30 -14 -48 -52 -47 -96 1 -27 9 -43 32 -64 69 -61 171
-18 171 72 0 78 -82 124 -156 88z m84 -50 c17 -17 15 -63 -3 -78 -8 -7 -25
-10 -40 -6 -21 5 -25 12 -25 45 0 21 3 41 7 44 11 11 48 8 61 -5z"/>
<path d="M443 7138 c-53 -46 -53 -46 -51 -113 l3 -60 95 0 95 0 3 60 c1 33 -1
65 -5 70 -15 19 -84 75 -93 75 -5 0 -26 -15 -47 -32z m88 -20 c37 -29 39 -35
39 -85 0 -46 -3 -53 -19 -53 -16 0 -20 8 -23 43 -3 41 -4 42 -38 42 -34 0 -35
-1 -38 -42 -3 -35 -7 -43 -23 -43 -16 0 -19 7 -19 53 0 48 3 55 37 84 21 18
39 32 41 33 2 0 21 -14 43 -32z m-21 -103 c0 -28 -4 -35 -20 -35 -16 0 -20 7
-20 35 0 28 4 35 20 35 16 0 20 -7 20 -35z"/>
<path d="M750 7065 c0 -43 4 -75 10 -75 6 0 10 14 10 30 0 28 3 30 35 30 32 0
35 -2 35 -30 0 -16 5 -30 10 -30 6 0 10 32 10 75 0 43 -4 75 -10 75 -5 0 -10
-16 -10 -35 0 -33 -2 -35 -35 -35 -33 0 -35 2 -35 35 0 19 -4 35 -10 35 -6 0
-10 -32 -10 -75z"/>
<path d="M912 7094 c-43 -30 -20 -104 33 -104 53 0 76 74 33 104 -12 9 -27 16
-33 16 -6 0 -21 -7 -33 -16z m58 -19 c20 -24 4 -65 -25 -65 -18 0 -26 7 -31
25 -7 27 9 55 31 55 7 0 18 -7 25 -15z"/>
<path d="M1030 7049 c0 -33 4 -59 10 -59 6 0 10 17 10 39 0 42 18 65 44 55 11
-4 16 -19 16 -50 0 -24 5 -44 10 -44 6 0 10 15 10 33 0 41 21 73 44 64 11 -5
16 -19 16 -52 0 -33 4 -45 15 -45 11 0 15 11 15 40 0 47 -31 86 -58 74 -9 -4
-24 -6 -32 -6 -8 1 -34 4 -57 6 l-43 4 0 -59z"/>
<path d="M1262 7094 c-41 -28 -21 -104 28 -104 25 0 50 10 50 20 0 5 -15 6
-34 3 -25 -4 -35 -1 -39 11 -5 13 1 16 38 16 38 0 45 3 45 19 0 20 -34 51 -55
51 -6 0 -21 -7 -33 -16z m58 -19 c11 -13 7 -15 -25 -15 -32 0 -36 2 -25 15 7
8 18 15 25 15 7 0 18 -7 25 -15z"/>
<path d="M4275 6831 c-6 -11 9 -23 19 -14 9 9 7 23 -3 23 -6 0 -12 -4 -16 -9z"/>
<path d="M4340 6750 c0 -53 4 -90 10 -90 6 0 10 12 10 27 l0 27 28 -27 c41
-39 63 -34 25 6 l-32 32 26 30 c15 17 21 31 14 33 -6 2 -22 -9 -35 -25 l-25
-28 -1 53 c0 28 -4 52 -10 52 -6 0 -10 -37 -10 -90z"/>
<path d="M4710 6825 c0 -8 5 -15 10 -15 6 0 10 7 10 15 0 8 -4 15 -10 15 -5 0
-10 -7 -10 -15z"/>
<path d="M5730 6751 c0 -75 3 -91 15 -91 13 0 15 14 13 87 -2 58 -7 88 -15 91
-10 3 -13 -19 -13 -87z"/>
<path d="M6790 6750 c0 -53 4 -90 10 -90 6 0 10 12 10 27 l0 27 28 -27 c41
-39 63 -34 25 6 l-32 32 26 30 c15 17 21 31 14 33 -6 2 -22 -9 -35 -25 l-25
-28 -1 53 c0 28 -4 52 -10 52 -6 0 -10 -37 -10 -90z"/>
<path d="M7320 6825 c0 -8 5 -15 10 -15 6 0 10 7 10 15 0 8 -4 15 -10 15 -5 0
-10 -7 -10 -15z"/>
<path d="M7550 6812 c0 -27 -2 -28 -47 -28 -41 1 -49 -2 -60 -25 -29 -59 24
-117 83 -90 15 6 24 7 24 1 0 -6 5 -10 10 -10 6 0 10 37 10 90 0 53 -4 90 -10
90 -5 0 -10 -13 -10 -28z m-10 -61 c15 -30 -4 -71 -33 -71 -30 0 -47 18 -47
50 0 34 7 40 41 40 18 0 32 -7 39 -19z"/>
<path d="M7980 6753 l0 -90 49 -1 c62 -1 85 15 85 61 0 50 -20 70 -65 65 -34
-3 -38 -1 -41 21 -2 13 -9 26 -15 29 -10 3 -13 -19 -13 -85z m109 -5 c12 -31
-2 -62 -28 -66 -30 -5 -51 15 -51 48 0 34 6 40 42 40 21 0 31 -6 37 -22z"/>
<path d="M9501 6827 c-13 -16 -15 -33 -13 -109 2 -44 6 -58 17 -58 11 0 15 13
15 54 0 34 5 57 13 60 10 5 10 7 0 12 -15 7 -17 34 -3 34 6 0 10 5 10 10 0 14
-26 12 -39 -3z"/>
<path d="M9720 6750 c0 -53 4 -90 10 -90 6 0 10 37 10 90 0 53 -4 90 -10 90
-6 0 -10 -37 -10 -90z"/>
<path d="M9782 6829 c2 -6 8 -10 13 -10 5 0 11 4 13 10 2 6 -4 11 -13 11 -9 0
-15 -5 -13 -11z"/>
<path d="M4110 6745 c0 -50 4 -85 10 -85 6 0 10 29 10 67 l0 68 45 -68 c25
-37 50 -67 55 -67 6 0 10 36 10 85 0 101 -18 115 -22 18 l-3 -68 -42 68 c-23
37 -47 67 -53 67 -6 0 -10 -33 -10 -85z"/>
<path d="M4630 6806 c0 -8 -6 -17 -12 -19 -10 -4 -10 -7 -1 -14 6 -5 13 -31
15 -58 3 -43 6 -50 26 -53 12 -2 22 1 22 7 0 6 -7 11 -15 11 -11 0 -15 12 -15
45 0 33 4 45 15 45 8 0 15 5 15 10 0 6 -7 10 -15 10 -8 0 -15 7 -15 15 0 8 -4
15 -10 15 -5 0 -10 -6 -10 -14z"/>
<path d="M9410 6806 c0 -8 -6 -17 -12 -19 -10 -4 -10 -7 -1 -14 6 -5 13 -31
15 -58 3 -43 6 -50 26 -53 12 -2 22 1 22 7 0 6 -7 11 -15 11 -11 0 -15 12 -15
45 0 33 4 45 15 45 8 0 15 5 15 10 0 6 -7 10 -15 10 -8 0 -15 7 -15 15 0 8 -4
15 -10 15 -5 0 -10 -6 -10 -14z"/>
<path d="M4280 6725 c0 -37 4 -65 10 -65 6 0 10 28 10 65 0 37 -4 65 -10 65
-6 0 -10 -28 -10 -65z"/>
<path d="M4473 6778 c-19 -24 -22 -48 -12 -78 13 -35 48 -48 85 -31 15 6 24 7
24 1 0 -6 5 -10 10 -10 6 0 10 28 10 63 l0 63 -54 2 c-33 1 -57 -2 -63 -10z
m87 -27 c15 -30 -4 -71 -33 -71 -30 0 -47 18 -47 50 0 34 7 40 41 40 18 0 32
-7 39 -19z"/>
<path d="M4710 6725 c0 -37 4 -65 10 -65 6 0 10 28 10 65 0 37 -4 65 -10 65
-6 0 -10 -28 -10 -65z"/>
<path d="M4840 6775 c-18 -22 -6 -42 35 -59 20 -9 34 -20 30 -26 -8 -14 -38
-13 -53 2 -17 17 -28 2 -12 -17 16 -19 64 -19 80 0 18 22 6 42 -35 59 -19 8
-35 19 -35 24 0 17 28 21 47 7 26 -20 35 -18 23 5 -13 24 -62 27 -80 5z"/>
<path d="M4966 6768 c-34 -48 -7 -108 48 -108 19 0 39 7 46 15 16 19 5 34 -12
17 -19 -19 -56 -14 -68 8 -10 19 -8 20 45 20 60 0 67 9 39 48 -10 15 -25 22
-49 22 -24 0 -39 -7 -49 -22z m89 -18 c4 -6 -12 -10 -42 -10 l-48 1 23 19 c24
20 51 15 67 -10z"/>
<path d="M5110 6723 c0 -76 18 -85 22 -10 3 50 4 52 33 52 29 0 30 -2 33 -52
4 -63 22 -71 22 -10 0 48 13 67 46 67 26 0 34 -17 34 -71 0 -21 5 -39 10 -39
13 0 13 86 0 111 -12 21 -50 25 -80 9 -13 -7 -21 -7 -25 0 -3 6 -26 9 -51 8
l-44 -1 0 -64z"/>
<path d="M5350 6747 c0 -64 21 -87 75 -85 l45 2 0 63 c0 35 -4 63 -10 63 -5 0
-10 -18 -10 -39 0 -55 -8 -71 -36 -71 -28 0 -44 26 -44 74 0 20 -4 36 -10 36
-5 0 -10 -19 -10 -43z"/>
<path d="M5516 6768 c-9 -12 -16 -32 -16 -43 0 -11 7 -31 16 -43 12 -18 23
-22 65 -20 l49 2 0 61 0 61 -49 2 c-42 2 -53 -2 -65 -20z m90 -25 c9 -34 -6
-57 -39 -61 -20 -3 -30 3 -38 21 -16 36 3 67 41 67 24 0 31 -5 36 -27z"/>
<path d="M5806 6774 c-22 -21 -20 -77 2 -97 22 -20 63 -22 80 -5 9 9 12 9 12
0 0 -7 5 -12 10 -12 6 0 10 28 10 65 0 37 -4 65 -10 65 -5 0 -10 -5 -10 -12 0
-9 -3 -9 -12 0 -17 17 -64 15 -82 -4z m85 -25 c17 -33 -4 -71 -38 -67 -33 4
-48 27 -39 61 5 22 12 27 36 27 20 0 33 -7 41 -21z"/>
<path d="M5967 6733 c22 -50 24 -64 15 -96 -16 -62 9 -39 41 39 47 114 47 114
36 114 -9 0 -19 -20 -44 -85 -6 -17 -10 -11 -27 33 -12 28 -27 52 -34 52 -9 0
-6 -16 13 -57z"/>
<path d="M6103 6778 c-19 -24 -22 -48 -12 -78 13 -35 48 -48 85 -31 15 6 24 7
24 1 0 -6 5 -10 10 -10 6 0 10 28 10 63 l0 63 -54 2 c-33 1 -57 -2 -63 -10z
m87 -27 c15 -30 -4 -71 -33 -71 -30 0 -47 18 -47 50 0 34 7 40 41 40 18 0 32
-7 39 -19z"/>
<path d="M6250 6724 c0 -49 3 -64 14 -64 11 0 16 15 18 53 3 50 4 52 33 52 29
0 30 -2 33 -52 4 -69 22 -68 22 1 0 65 -11 76 -73 74 l-47 -1 0 -63z"/>
<path d="M6416 6772 c-35 -39 -8 -112 43 -112 15 0 32 5 39 12 9 9 12 9 12 0
0 -7 5 -12 10 -12 6 0 10 28 10 63 l0 63 -49 2 c-36 1 -52 -3 -65 -16z m82
-14 c7 -7 12 -21 12 -33 0 -12 -5 -26 -12 -33 -7 -7 -21 -12 -33 -12 -12 0
-26 5 -33 12 -7 7 -12 21 -12 33 0 12 5 26 12 33 7 7 21 12 33 12 12 0 26 -5
33 -12z"/>
<path d="M6570 6723 c0 -76 18 -85 22 -10 3 50 4 52 34 55 35 3 44 -12 44 -75
0 -18 5 -33 11 -33 17 0 6 110 -12 121 -8 5 -33 8 -56 7 l-43 -1 0 -64z"/>
<path d="M6916 6768 c-9 -12 -16 -32 -16 -43 0 -11 7 -31 16 -43 12 -18 23
-22 65 -20 l49 2 0 61 0 61 -49 2 c-42 2 -53 -2 -65 -20z m90 -25 c9 -34 -6
-57 -39 -61 -20 -3 -30 3 -38 21 -16 36 3 67 41 67 24 0 31 -5 36 -27z"/>
<path d="M7070 6723 c0 -35 4 -63 10 -63 6 0 10 19 10 43 0 48 13 67 46 67 26
0 34 -17 34 -71 0 -58 18 -47 22 14 3 50 4 52 33 52 29 0 30 -2 33 -52 2 -29
7 -53 13 -53 13 0 11 104 -3 118 -15 15 -64 16 -73 2 -5 -8 -11 -8 -19 -1 -7
6 -34 10 -59 9 l-47 -2 0 -63z"/>
<path d="M7320 6725 c0 -37 4 -65 10 -65 6 0 10 28 10 65 0 37 -4 65 -10 65
-6 0 -10 -28 -10 -65z"/>
<path d="M7616 6774 c-22 -21 -20 -77 2 -97 22 -20 63 -22 80 -5 9 9 12 9 12
0 0 -7 5 -12 10 -12 6 0 10 28 10 65 0 37 -4 65 -10 65 -5 0 -10 -5 -10 -12 0
-9 -3 -9 -12 0 -17 17 -64 15 -82 -4z m85 -25 c17 -33 -4 -71 -38 -67 -33 4
-48 27 -39 61 5 22 12 27 36 27 20 0 33 -7 41 -21z"/>
<path d="M7770 6724 c0 -77 18 -86 22 -11 3 50 4 52 33 52 29 0 30 -2 33 -52
2 -38 7 -53 18 -53 18 0 19 65 1 100 -11 21 -20 25 -60 26 l-47 2 0 -64z"/>
<path d="M8156 6772 c-35 -39 -8 -112 43 -112 15 0 32 5 39 12 9 9 12 9 12 0
0 -7 5 -12 10 -12 6 0 10 28 10 63 l0 63 -49 2 c-36 1 -52 -3 -65 -16z m82
-14 c7 -7 12 -21 12 -33 0 -12 -5 -26 -12 -33 -7 -7 -21 -12 -33 -12 -12 0
-26 5 -33 12 -7 7 -12 21 -12 33 0 12 5 26 12 33 7 7 21 12 33 12 12 0 26 -5
33 -12z"/>
<path d="M8310 6723 c0 -76 18 -85 22 -10 3 50 4 52 34 55 35 3 44 -12 44 -75
0 -18 5 -33 11 -33 17 0 6 110 -12 121 -8 5 -33 8 -56 7 l-43 -1 0 -64z"/>
<path d="M8476 6774 c-22 -21 -20 -77 2 -97 22 -20 63 -22 80 -5 9 9 12 7 12
-9 0 -24 -25 -53 -45 -53 -7 0 -20 7 -29 15 -23 23 -42 19 -21 -5 23 -25 76
-26 98 -2 13 14 17 38 17 95 0 45 -4 77 -10 77 -5 0 -10 -5 -10 -12 0 -9 -3
-9 -12 0 -17 17 -64 15 -82 -4z m85 -25 c17 -33 -4 -71 -38 -67 -33 4 -48 27
-39 61 5 22 12 27 36 27 20 0 33 -7 41 -21z"/>
<path d="M8620 6747 c0 -64 21 -87 75 -85 l45 2 0 63 c0 35 -4 63 -10 63 -5 0
-10 -18 -10 -39 0 -55 -8 -71 -36 -71 -28 0 -44 26 -44 74 0 20 -4 36 -10 36
-5 0 -10 -19 -10 -43z"/>
<path d="M8780 6723 c0 -76 18 -85 22 -10 3 50 4 52 34 55 35 3 44 -12 44 -75
0 -18 5 -33 11 -33 17 0 6 110 -12 121 -8 5 -33 8 -56 7 l-43 -1 0 -64z"/>
<path d="M9000 6695 c0 -57 4 -95 10 -95 6 0 10 19 10 42 0 33 3 39 12 30 35
-35 98 2 98 59 0 47 -66 79 -98 47 -9 -9 -12 -9 -12 0 0 7 -4 12 -10 12 -6 0
-10 -38 -10 -95z m98 63 c7 -7 12 -21 12 -33 0 -12 -5 -26 -12 -33 -7 -7 -21
-12 -33 -12 -12 0 -26 5 -33 12 -7 7 -12 21 -12 33 0 12 5 26 12 33 7 7 21 12
33 12 12 0 26 -5 33 -12z"/>
<path d="M9166 6768 c-9 -12 -16 -33 -16 -45 0 -53 78 -84 113 -45 22 25 21
75 -1 95 -27 25 -78 22 -96 -5z m90 -25 c9 -34 -6 -57 -39 -61 -20 -3 -30 3
-38 21 -16 36 3 67 41 67 24 0 31 -5 36 -27z"/>
<path d="M9310 6723 c0 -35 4 -63 10 -63 6 0 10 16 10 36 0 42 15 74 35 74 8
0 15 4 15 9 0 5 -16 9 -35 8 l-35 -1 0 -63z"/>
<path d="M9576 6768 c-9 -12 -16 -33 -16 -45 0 -53 78 -84 113 -45 22 25 21
75 -1 95 -27 25 -78 22 -96 -5z m90 -25 c9 -34 -6 -57 -39 -61 -20 -3 -30 3
-38 21 -16 36 3 67 41 67 24 0 31 -5 36 -27z"/>
<path d="M9780 6725 c0 -37 4 -65 10 -65 6 0 10 28 10 65 0 37 -4 65 -10 65
-6 0 -10 -28 -10 -65z"/>
<path d="M9846 6768 c-9 -12 -16 -33 -16 -45 0 -53 78 -84 113 -45 22 25 21
75 -1 95 -27 25 -78 22 -96 -5z m90 -25 c9 -34 -6 -57 -39 -61 -20 -3 -30 3
-38 21 -16 36 3 67 41 67 24 0 31 -5 36 -27z"/>
<path d="M9990 6724 c0 -49 3 -64 14 -64 11 0 16 15 18 53 3 50 4 52 33 52 29
0 30 -2 33 -52 2 -29 7 -53 12 -53 5 0 10 24 12 53 3 50 4 52 33 52 29 0 30
-2 33 -52 2 -40 7 -53 19 -53 13 0 15 9 11 50 -3 27 -11 56 -18 65 -14 17 -66
20 -75 5 -5 -8 -11 -8 -19 -1 -7 6 -33 10 -59 9 l-47 -1 0 -63z"/>
<path d="M10240 6741 c0 -64 17 -81 75 -79 l45 2 0 63 c0 73 -17 86 -22 17 -2
-31 -9 -51 -20 -58 -30 -19 -53 4 -56 58 -4 62 -22 59 -22 -3z"/>
<path d="M16536 6760 c-67 -21 -111 -89 -104 -162 9 -84 69 -140 153 -140 86
0 145 56 153 144 3 44 0 59 -20 87 -12 19 -34 42 -48 52 -30 22 -95 31 -134
19z m119 -92 c22 -26 26 -39 21 -67 -3 -21 -16 -45 -31 -58 -55 -48 -140 -15
-151 58 -5 28 -1 41 21 67 22 27 34 32 70 32 36 0 48 -5 70 -32z"/>
<path d="M412 6618 c-14 -14 -17 -175 -3 -196 5 -9 30 -12 87 -10 l79 3 0 105
0 105 -75 3 c-50 2 -79 -1 -88 -10z m48 -48 c0 -41 7 -49 28 -28 9 9 15 9 24
0 21 -21 28 -13 28 28 0 22 5 40 10 40 6 0 10 -28 10 -65 l0 -65 -70 0 -70 0
0 58 c0 61 4 72 27 72 9 0 13 -13 13 -40z m60 22 c0 -11 -7 -18 -20 -18 -13 0
-20 7 -20 18 0 11 7 18 20 18 13 0 20 -7 20 -18z m40 -147 c0 -12 -14 -15 -70
-15 -64 0 -81 6 -63 23 3 4 35 7 70 7 49 0 63 -3 63 -15z"/>
<path d="M765 6575 c-68 -67 23 -166 96 -105 20 16 21 19 7 20 -9 0 -20 -4
-23 -10 -9 -14 -58 -13 -73 2 -15 15 -16 53 -2 79 13 24 57 25 82 2 17 -15 18
-15 18 1 0 16 -36 36 -66 36 -8 0 -26 -11 -39 -25z"/>
<path d="M933 6560 c-53 -21 -31 -110 27 -110 30 0 60 30 60 60 0 39 -47 66
-87 50z m57 -25 c26 -31 -8 -83 -45 -69 -37 15 -25 84 15 84 10 0 23 -7 30
-15z"/>
<path d="M1046 6557 c-9 -18 -2 -84 9 -96 4 -3 26 -6 51 -7 l44 -2 0 54 c0 29
-4 56 -10 59 -6 4 -10 -11 -10 -39 0 -34 -5 -48 -19 -55 -29 -16 -50 7 -53 59
-3 33 -6 40 -12 27z"/>
<path d="M1181 6505 c1 -60 2 -60 9 -16 4 24 14 49 23 56 23 16 21 20 -8 20
-24 0 -25 -2 -24 -60z"/>
<path d="M1268 6559 c-28 -16 -21 -39 18 -55 19 -8 33 -20 31 -27 -5 -13 -21
-14 -52 -1 -18 7 -18 6 -6 -9 17 -22 54 -22 72 -1 11 14 10 19 -10 35 -13 11
-29 19 -37 19 -8 0 -14 7 -14 15 0 18 31 20 48 3 6 -6 14 -9 17 -6 8 8 -23 38
-38 38 -7 0 -20 -5 -29 -11z"/>
<path d="M1380 6550 c-48 -48 0 -119 64 -94 9 3 16 13 16 22 0 13 -3 13 -19
-2 -15 -14 -24 -15 -40 -6 -34 18 -24 30 24 30 38 0 45 3 45 19 0 20 -35 51
-57 51 -7 0 -22 -9 -33 -20z m68 -17 c2 -9 -8 -13 -32 -13 -34 0 -44 8 -29 24
11 11 56 2 61 -11z"/>
<path d="M1508 6559 c-28 -16 -21 -39 18 -55 19 -8 33 -20 31 -27 -5 -13 -21
-14 -52 -1 -18 7 -18 6 -6 -9 17 -22 54 -22 72 -1 11 14 10 19 -10 35 -13 11
-29 19 -37 19 -8 0 -14 7 -14 15 0 18 31 20 48 3 6 -6 14 -9 17 -6 8 8 -23 38
-38 38 -7 0 -20 -5 -29 -11z"/>
<path d="M16420 6373 c-19 -10 -45 -33 -57 -51 -40 -60 -40 -182 0 -182 25 0
37 25 37 76 0 41 5 59 24 81 l24 28 136 0 c128 0 137 -1 158 -23 17 -17 24
-38 28 -84 4 -44 10 -64 23 -72 31 -19 50 18 42 84 -7 62 -28 104 -68 134 -25
19 -44 21 -170 24 -120 2 -147 0 -177 -15z"/>
<path d="M5269 6076 c17 -29 31 -68 31 -85 0 -24 4 -31 20 -31 15 0 20 7 20
25 0 14 14 52 30 85 l30 60 -24 0 c-17 0 -27 -8 -36 -30 -7 -16 -16 -30 -20
-30 -4 0 -13 14 -20 30 -9 22 -19 30 -37 30 l-24 0 30 -54z"/>
<path d="M5905 6105 c-53 -52 -16 -145 58 -145 32 0 77 29 77 50 0 13 -37 13
-45 0 -9 -14 -48 -13 -63 2 -29 29 -7 78 34 78 13 0 26 -4 29 -10 7 -12 45
-14 45 -2 -1 24 -45 52 -85 52 -14 0 -37 -11 -50 -25z"/>
<path d="M5460 6093 c-31 -11 -50 -37 -50 -68 0 -65 79 -90 120 -38 41 52 -9
128 -70 106z m39 -52 c14 -24 -8 -55 -32 -45 -17 6 -24 44 -10 57 12 13 32 7
42 -12z"/>
<path d="M6103 6090 c-44 -18 -56 -77 -23 -110 41 -41 120 -12 120 44 0 47
-53 83 -97 66z m52 -51 c5 -14 1 -27 -9 -37 -15 -15 -17 -15 -32 0 -20 20 -10
58 16 58 10 0 22 -10 25 -21z"/>
<path d="M6510 6087 c-36 -18 -32 -49 8 -66 43 -19 41 -34 -4 -25 -29 5 -36 4
-32 -7 7 -20 50 -33 82 -25 19 5 26 13 26 32 0 19 -8 28 -35 40 -20 8 -33 19
-29 25 4 8 10 7 17 0 13 -13 47 -15 47 -2 0 10 -39 41 -50 41 -3 0 -16 -6 -30
-13z"/>
<path d="M6653 6090 c-44 -18 -56 -77 -23 -110 26 -26 72 -26 96 1 l19 21 -44
-4 c-29 -2 -45 1 -48 10 -3 8 10 12 45 12 47 0 49 1 45 25 -8 40 -50 61 -90
45z m47 -40 c0 -5 -12 -10 -26 -10 -14 0 -23 4 -19 10 3 6 15 10 26 10 10 0
19 -4 19 -10z"/>
<path d="M6792 6089 c-18 -7 -23 -15 -20 -36 2 -21 10 -29 36 -37 47 -13 39
-27 -10 -20 l-43 7 19 -22 c11 -12 31 -21 47 -21 26 0 59 22 59 40 0 15 -31
40 -50 40 -20 0 -33 13 -23 23 3 4 14 2 25 -4 10 -6 26 -9 34 -7 12 2 13 6 2
19 -17 22 -48 30 -76 18z"/>
<path d="M5570 6044 c0 -71 11 -83 75 -83 l55 1 0 64 c0 57 -2 64 -19 64 -17
0 -20 -8 -23 -47 -3 -40 -6 -48 -23 -48 -17 0 -20 8 -23 48 -3 39 -6 47 -23
47 -16 0 -19 -7 -19 -46z"/>
<path d="M5730 6024 c0 -57 2 -64 20 -64 17 0 20 7 20 41 0 32 4 42 20 46 11
3 20 13 20 23 0 14 -9 18 -40 18 l-40 1 0 -65z"/>
<path d="M6220 6044 c0 -71 11 -83 75 -83 l55 1 0 64 c0 57 -2 64 -19 64 -17
0 -20 -8 -23 -47 -3 -40 -6 -48 -23 -48 -17 0 -20 8 -23 48 -3 39 -6 47 -23
47 -16 0 -19 -7 -19 -46z"/>
<path d="M6380 6025 c0 -63 1 -65 25 -65 23 0 25 4 25 45 0 38 3 45 20 45 13
0 20 7 20 19 0 15 -8 19 -45 19 l-45 1 0 -64z"/>
<path d="M384 6067 c-3 -8 -4 -45 -2 -83 l3 -69 40 -3 c22 -2 46 -10 53 -19
11 -16 13 -16 25 0 6 9 30 17 52 19 l40 3 0 80 0 80 -38 3 c-21 2 -45 -2 -53
-9 -11 -9 -18 -9 -26 -1 -17 17 -87 15 -94 -1z m94 -74 l3 -63 -41 0 -40 0 0
66 0 65 38 -3 37 -3 3 -62z m102 2 l0 -65 -40 0 -40 0 0 58 c0 32 3 62 7 65 3
4 21 7 40 7 l33 0 0 -65z"/>
<path d="M740 6055 c0 -3 9 -23 20 -45 11 -22 20 -53 20 -70 0 -16 5 -30 10
-30 6 0 10 11 10 25 0 14 9 44 21 66 11 22 18 46 16 52 -2 7 -12 -5 -22 -25
-11 -21 -22 -38 -26 -38 -3 0 -12 14 -19 30 -12 28 -30 49 -30 35z"/>
<path d="M1302 6048 c-23 -12 -38 -48 -33 -83 6 -50 82 -73 116 -35 10 11 13
20 7 20 -6 0 -14 -4 -17 -10 -3 -5 -22 -10 -41 -10 -28 0 -36 5 -45 28 -23 57
34 102 87 68 30 -20 32 -3 2 18 -26 18 -44 19 -76 4z"/>
<path d="M893 6020 c-53 -21 -31 -110 27 -110 30 0 60 30 60 60 0 39 -47 66
-87 50z m57 -25 c26 -31 -8 -83 -45 -69 -37 15 -25 84 15 84 10 0 23 -7 30
-15z"/>
<path d="M1006 6017 c-9 -18 -2 -84 9 -96 4 -3 26 -6 51 -7 l44 -2 0 54 c0 29
-4 56 -10 59 -6 4 -10 -11 -10 -39 0 -34 -5 -48 -19 -55 -29 -16 -50 7 -53 59
-3 33 -6 40 -12 27z"/>
<path d="M1140 5972 c0 -35 4 -62 10 -62 6 0 10 20 10 44 0 36 4 46 20 51 11
4 18 11 14 16 -4 6 -10 6 -18 0 -9 -7 -16 -7 -24 1 -9 9 -12 -2 -12 -50z"/>
<path d="M1452 6014 c-43 -30 -20 -104 33 -104 53 0 76 74 33 104 -12 9 -27
16 -33 16 -6 0 -21 -7 -33 -16z m66 -39 c3 -19 -2 -33 -14 -42 -25 -18 -54 1
-54 36 0 35 8 43 40 39 19 -2 26 -9 28 -33z"/>
<path d="M1570 5982 c0 -58 12 -72 63 -70 l37 1 0 59 c0 37 -4 57 -10 53 -5
-3 -10 -23 -10 -44 0 -42 -18 -65 -44 -55 -11 4 -16 19 -16 49 0 24 -4 47 -10
50 -6 4 -10 -13 -10 -43z"/>
<path d="M1713 5970 c0 -46 2 -53 4 -22 3 28 11 47 24 55 25 15 25 31 0 17
-14 -7 -21 -6 -24 3 -3 6 -5 -17 -4 -53z"/>
<path d="M1795 6016 c-23 -17 -14 -43 20 -56 14 -5 25 -14 25 -19 0 -17 -20
-23 -36 -10 -17 14 -33 4 -17 -12 6 -6 23 -9 39 -7 21 2 30 9 32 26 3 18 -3
25 -27 33 -17 6 -31 17 -31 25 0 17 37 19 43 2 2 -7 8 -9 13 -5 5 5 1 15 -10
23 -24 17 -28 17 -51 0z"/>
<path d="M1918 6023 c-24 -6 -39 -55 -24 -84 13 -27 59 -37 82 -18 23 19 16
31 -10 14 -25 -17 -51 -12 -60 11 -4 11 6 14 45 14 48 0 50 1 44 23 -4 12 -10
25 -14 28 -10 10 -44 17 -63 12z m52 -28 c11 -13 7 -15 -24 -15 -34 0 -44 8
-29 23 11 12 40 8 53 -8z"/>
<path d="M2035 6016 c-23 -17 -14 -43 20 -56 14 -5 25 -14 25 -19 0 -17 -20
-23 -36 -10 -17 14 -33 4 -17 -12 6 -6 23 -9 39 -7 21 2 30 9 32 26 3 18 -3
25 -27 33 -17 6 -31 17 -31 25 0 17 37 19 43 2 2 -7 8 -9 13 -5 5 5 1 15 -10
23 -24 17 -28 17 -51 0z"/>
<path d="M4509 5989 c-17 -32 -8 -217 11 -229 8 -5 40 -10 71 -10 48 0 57 -3
62 -20 7 -25 27 -26 34 -1 4 15 16 20 68 23 36 2 68 7 72 12 13 13 16 202 4
225 -10 18 -21 21 -68 21 -38 0 -62 -5 -75 -17 -17 -15 -19 -15 -36 0 -13 12
-37 17 -75 17 -47 0 -58 -3 -68 -21z m129 -21 c8 -8 12 -45 12 -101 0 -88 0
-89 -22 -83 -13 3 -38 6 -55 6 l-33 0 0 95 0 95 43 0 c24 0 48 -5 55 -12z
m162 -83 l0 -95 -32 0 c-18 0 -43 -3 -55 -6 -23 -6 -23 -5 -23 83 0 56 4 93
12 101 7 7 31 12 55 12 l43 0 0 -95z"/>
<path d="M5272 5758 c-19 -19 -14 -33 6 -15 23 21 46 22 62 2 14 -17 6 -33
-24 -45 -20 -8 -20 -8 7 -19 31 -12 37 -45 10 -59 -22 -11 -44 -5 -60 16 -12
14 -13 14 -13 -1 0 -26 44 -43 75 -29 29 13 34 52 9 73 -14 11 -14 13 0 21 35
20 11 68 -34 68 -14 0 -31 -5 -38 -12z"/>
<path d="M16280 5660 c0 -99 0 -100 24 -100 23 0 25 4 28 52 2 42 7 54 22 56
25 5 36 -14 36 -65 0 -36 3 -43 20 -43 18 0 20 7 20 59 0 73 -17 96 -67 88
-31 -5 -33 -4 -33 24 0 24 -4 29 -25 29 l-25 0 0 -100z"/>
<path d="M16030 5681 c0 -69 -11 -94 -33 -72 -16 16 -47 14 -47 -3 0 -38 58
-58 101 -36 16 9 19 22 19 95 0 78 -2 85 -20 85 -18 0 -20 -7 -20 -69z"/>
<path d="M16710 5655 l0 -95 45 0 c90 0 138 54 114 127 -13 41 -53 63 -114 63
l-45 0 0 -95z m104 39 c35 -34 9 -94 -40 -94 -22 0 -24 3 -24 55 0 52 2 55 24
55 14 0 32 -7 40 -16z"/>
<path d="M5476 5708 c-9 -12 -16 -33 -16 -45 0 -26 33 -63 56 -63 21 0 54 19
54 31 0 5 -11 2 -24 -6 -47 -31 -93 22 -62 70 19 29 42 32 68 8 20 -18 25 -4
6 15 -20 20 -65 14 -82 -10z"/>
<path d="M5625 5710 c-36 -40 -9 -110 42 -110 30 0 63 34 63 65 0 55 -69 85
-105 45z m67 -2 c29 -22 27 -72 -3 -88 -47 -26 -92 46 -53 84 19 19 35 20 56
4z"/>
<path d="M5772 5677 c-2 -53 0 -58 24 -69 20 -9 30 -9 45 0 11 7 19 8 19 2 0
-5 5 -10 10 -10 6 0 10 28 10 65 0 37 -4 65 -10 65 -5 0 -10 -22 -10 -50 0
-39 -4 -52 -20 -60 -36 -19 -58 3 -63 63 l-3 52 -2 -58z"/>
<path d="M5921 5665 c2 -67 2 -68 8 -21 5 34 14 53 32 67 13 10 19 19 14 19
-6 0 -17 -6 -23 -12 -10 -10 -15 -10 -22 2 -7 10 -9 -8 -9 -55z"/>
<path d="M6023 5724 c-30 -13 -6 -64 29 -64 23 0 35 -27 20 -42 -8 -8 -19 -8
-38 1 -24 11 -26 10 -14 -3 28 -35 97 -5 73 32 -5 10 -19 18 -31 20 -25 4 -46
27 -37 42 9 14 38 13 54 -2 11 -11 13 -10 9 2 -5 15 -43 23 -65 14z"/>
<path d="M6147 5712 c-44 -48 1 -127 60 -106 15 5 28 15 31 22 3 10 -3 9 -22
-3 -24 -16 -28 -16 -51 -1 -39 25 -30 36 30 36 60 0 67 9 39 48 -19 27 -64 29
-87 4z m71 -4 c25 -25 13 -38 -33 -38 -49 0 -53 4 -28 32 19 21 44 23 61 6z"/>
<path d="M6290 5715 c-18 -22 -6 -41 34 -55 38 -12 47 -34 20 -44 -8 -3 -25
-1 -36 5 -11 6 -22 8 -25 6 -10 -11 40 -28 63 -23 39 10 33 52 -11 66 -36 12
-46 36 -19 47 8 3 20 1 27 -6 17 -17 31 -13 17 4 -16 19 -54 19 -70 0z"/>
<path d="M16129 5691 c-17 -13 -23 -29 -23 -56 0 -70 79 -101 129 -50 30 30
32 64 4 99 -25 32 -75 35 -110 7z m76 -56 c0 -25 -4 -30 -25 -30 -16 0 -26 6
-28 18 -6 30 6 49 30 45 18 -2 23 -9 23 -33z"/>
<path d="M16470 5634 c0 -67 2 -74 19 -74 17 0 20 8 23 53 3 48 5 52 28 52 23
0 25 -4 28 -52 3 -49 5 -53 28 -53 22 0 24 4 24 48 0 26 -6 58 -13 72 -11 22
-19 25 -75 27 l-62 1 0 -74z"/>
<path d="M16911 5684 c-62 -79 43 -170 114 -99 49 49 16 125 -55 125 -30 0
-43 -6 -59 -26z m84 -49 c0 -25 -4 -30 -25 -30 -16 0 -26 6 -28 18 -6 30 6 49
30 45 18 -2 23 -9 23 -33z"/>
<path d="M17085 5690 c-41 -46 -11 -130 46 -130 38 0 58 9 70 32 11 20 9 20
-34 14 -28 -4 -48 -3 -52 4 -4 6 12 10 44 10 50 0 51 1 51 29 0 56 -86 84
-125 41z m75 -25 c11 -13 8 -15 -20 -15 -28 0 -31 2 -20 15 7 8 16 15 20 15 4
0 13 -7 20 -15z"/>
<path d="M15345 5350 c-3 -5 -1 -10 4 -10 6 0 11 5 11 10 0 6 -2 10 -4 10 -3
0 -8 -4 -11 -10z"/>
<path d="M17145 5350 c-3 -5 -1 -10 4 -10 6 0 11 5 11 10 0 6 -2 10 -4 10 -3
0 -8 -4 -11 -10z"/>
<path d="M15563 5265 c0 -79 1 -83 6 -35 4 30 4 71 0 90 -4 23 -7 4 -6 -55z"/>
<path d="M15970 5320 c0 -27 -2 -30 -19 -20 -50 26 -95 -5 -89 -61 4 -44 46
-71 79 -51 18 12 23 12 30 0 5 -8 9 22 9 75 0 48 -2 87 -5 87 -3 0 -5 -14 -5
-30z m-18 -37 c26 -23 23 -59 -6 -78 -48 -32 -100 32 -61 75 22 24 43 25 67 3z"/>
<path d="M17214 5265 c0 -49 1 -71 3 -48 2 23 2 64 0 90 -2 26 -3 8 -3 -42z"/>
<path d="M16388 5314 c-33 -17 -58 -62 -58 -102 0 -35 33 -72 63 -71 20 1 20
2 2 6 -53 13 -71 68 -38 123 43 74 163 62 163 -16 0 -34 -17 -64 -37 -64 -13
0 -15 8 -10 43 l6 43 -39 2 c-30 2 -41 -2 -49 -17 -26 -47 0 -93 42 -74 15 7
28 7 40 -1 15 -9 22 -7 38 13 26 32 24 77 -6 106 -28 29 -75 32 -117 9z m72
-74 c0 -32 -27 -54 -54 -44 -19 7 -21 45 -4 62 7 7 22 12 35 12 19 0 23 -5 23
-30z"/>
<path d="M15352 5228 c-2 -71 -5 -89 -19 -97 -17 -10 -17 -10 0 -11 25 0 28
15 24 111 l-3 84 -2 -87z"/>
<path d="M15416 5291 c-26 -29 -18 -82 17 -101 24 -13 30 -13 55 0 55 31 34
120 -28 120 -15 0 -35 -9 -44 -19z m76 -8 c26 -23 23 -59 -7 -79 -23 -15 -27
-15 -50 0 -29 19 -32 51 -8 78 20 22 41 23 65 1z"/>
<path d="M15584 5298 c-5 -8 -2 -9 11 -4 40 15 55 -2 55 -60 0 -30 5 -54 10
-54 17 0 12 97 -6 114 -18 19 -60 21 -70 4z"/>
<path d="M15710 5245 c0 -77 18 -88 22 -14 2 36 8 55 21 63 30 19 51 -5 58
-65 l6 -54 1 56 c2 59 -9 79 -43 79 -12 0 -26 -5 -33 -12 -9 -9 -12 -9 -12 0
0 7 -4 12 -10 12 -6 0 -10 -28 -10 -65z"/>
<path d="M16040 5290 c-39 -39 -11 -110 43 -110 32 0 57 30 57 68 0 58 -59 83
-100 42z m74 -6 c23 -22 20 -60 -6 -78 -12 -9 -26 -16 -30 -16 -14 0 -48 39
-48 55 0 19 35 55 54 55 8 0 22 -7 30 -16z"/>
<path d="M16199 5300 c-34 -20 -31 -88 5 -112 20 -14 53 -8 71 12 10 11 13 20
7 20 -7 0 -12 -4 -12 -9 0 -16 -38 -23 -60 -11 -39 21 -24 40 30 40 43 0 50 3
50 19 0 41 -51 64 -91 41z m65 -16 c26 -25 19 -34 -29 -34 -48 0 -62 19 -27
39 24 15 38 13 56 -5z"/>
<path d="M16586 5294 c-25 -25 -24 -68 2 -97 16 -18 36 -18 75 -2 13 5 17 2
17 -13 0 -44 -53 -67 -84 -37 -22 22 -32 18 -11 -5 23 -25 67 -26 88 -2 13 14
17 38 17 98 0 53 -3 74 -10 64 -7 -12 -12 -12 -22 -2 -17 17 -53 15 -72 -4z
m74 -14 c11 -11 20 -27 20 -35 0 -16 -34 -55 -48 -55 -4 0 -18 7 -30 16 -26
18 -29 56 -6 78 21 21 40 20 64 -4z"/>
<path d="M16742 5245 c2 -63 2 -65 5 -17 3 44 8 55 28 64 37 17 55 -4 56 -66
l2 -51 6 46 c15 104 80 108 92 7 l6 -53 2 48 c0 27 -4 57 -9 68 -13 23 -52 25
-73 4 -13 -13 -16 -13 -27 0 -15 18 -56 20 -66 4 -4 -8 -9 -7 -15 2 -5 9 -8
-14 -7 -56z"/>
<path d="M16996 5294 c-26 -26 -24 -69 5 -99 17 -17 23 -18 51 -7 25 9 34 9
40 -1 4 -6 8 20 8 58 0 48 -3 65 -10 55 -7 -12 -12 -12 -22 -2 -17 17 -53 15
-72 -4z m74 -14 c11 -11 20 -27 20 -35 0 -16 -34 -55 -48 -55 -4 0 -18 7 -30
16 -26 18 -29 56 -6 78 21 21 40 20 64 -4z"/>
<path d="M17153 5245 c0 -38 2 -53 4 -32 2 20 2 52 0 70 -2 17 -4 1 -4 -38z"/>
<path d="M17326 5294 c-38 -37 -11 -114 40 -114 22 0 60 28 50 37 -3 3 -12 -2
-21 -11 -32 -32 -75 -7 -75 44 0 44 44 64 75 34 9 -9 19 -13 23 -9 10 10 -28
35 -54 35 -13 0 -30 -7 -38 -16z"/>
<path d="M17477 5298 c-27 -22 -31 -61 -7 -91 37 -46 94 -30 106 29 11 56 -54
96 -99 62z m64 -8 c29 -16 27 -78 -3 -89 -37 -14 -63 2 -66 40 -5 48 27 71 69
49z"/>
<path d="M17610 5245 c0 -37 4 -65 10 -65 6 0 10 22 10 49 0 54 17 77 49 66
21 -6 28 -23 34 -85 3 -29 4 -27 5 12 4 102 82 108 82 6 0 -26 5 -48 10 -48
16 0 12 83 -6 108 -17 24 -53 29 -72 10 -9 -9 -15 -9 -24 0 -7 7 -21 12 -33
12 -12 0 -26 -5 -33 -12 -9 -9 -12 -9 -12 0 0 7 -4 12 -10 12 -6 0 -10 -28
-10 -65z"/>
<path d="M17260 5189 c0 -5 5 -7 10 -4 6 3 10 8 10 11 0 2 -4 4 -10 4 -5 0
-10 -5 -10 -11z"/>
<path d="M3970 4485 c0 -3 16 -37 35 -75 19 -38 35 -83 35 -100 0 -25 4 -30
25 -30 22 0 25 4 25 40 0 26 12 61 36 105 l36 65 -29 0 c-24 0 -32 -7 -50 -42
l-20 -43 -22 43 c-16 32 -27 42 -46 42 -14 0 -25 -2 -25 -5z"/>
<path d="M4795 4468 c-71 -63 -25 -188 70 -188 45 0 95 35 95 66 0 9 -59 3
-65 -6 -3 -5 -19 -10 -35 -10 -49 0 -68 62 -30 100 24 24 43 25 64 5 17 -17
66 -20 66 -5 0 6 -11 22 -25 35 -33 34 -103 35 -140 3z"/>
<path d="M4199 4421 c-32 -33 -36 -58 -14 -100 16 -32 33 -41 78 -41 39 1 63
18 77 54 13 36 3 72 -27 96 -37 29 -79 26 -114 -9z m79 -23 c20 -20 15 -66 -9
-73 -27 -9 -41 6 -41 40 0 38 27 56 50 33z"/>
<path d="M4370 4385 c0 -52 4 -69 20 -85 22 -22 51 -26 81 -10 13 7 19 7 19 0
0 -5 11 -10 25 -10 25 0 25 1 25 85 0 84 0 85 -25 85 -22 0 -24 -4 -27 -56 -2
-40 -8 -60 -20 -67 -29 -19 -48 9 -48 69 0 51 -1 54 -25 54 -24 0 -25 -2 -25
-65z"/>
<path d="M4570 4365 l0 -85 30 0 c30 0 30 1 30 54 0 49 2 55 23 58 16 2 23 11
25 31 4 30 0 32 -28 17 -13 -7 -21 -7 -25 0 -3 5 -17 10 -31 10 -24 0 -24 -2
-24 -85z"/>
<path d="M5017 4430 c-30 -24 -40 -60 -27 -96 14 -36 38 -53 77 -54 45 0 62 9
78 41 22 42 18 67 -14 100 -35 35 -77 38 -114 9z m69 -28 c6 -4 14 -17 18 -28
8 -26 -19 -58 -41 -50 -8 3 -17 6 -19 6 -10 0 -3 57 8 68 14 14 19 14 34 4z"/>
<path d="M5190 4382 c0 -54 4 -72 18 -85 22 -20 63 -22 80 -5 9 9 12 9 12 0 0
-7 11 -12 25 -12 25 0 25 1 25 85 0 84 0 85 -25 85 -24 0 -25 -3 -25 -59 0
-51 -3 -61 -20 -66 -32 -10 -40 3 -40 66 0 56 -1 59 -25 59 -24 0 -25 -2 -25
-68z"/>
<path d="M5390 4365 c0 -84 0 -85 24 -85 23 0 25 4 28 53 3 45 6 52 26 55 17
3 22 10 22 33 0 32 -3 34 -31 19 -13 -7 -19 -7 -19 0 0 5 -11 10 -25 10 -25 0
-25 -1 -25 -85z"/>
<path d="M5542 4443 c-7 -2 -17 -13 -22 -24 -15 -27 3 -55 45 -69 51 -17 44
-33 -10 -24 -50 7 -59 -5 -23 -30 48 -34 118 -14 118 34 0 24 -6 31 -45 46
-25 9 -45 21 -45 25 0 12 37 11 45 -1 9 -15 45 -12 45 4 0 32 -66 56 -108 39z"/>
<path d="M5712 4434 c-33 -23 -45 -60 -31 -101 12 -37 34 -53 76 -53 34 0 73
25 73 47 0 12 -6 14 -27 9 -48 -12 -66 -11 -70 2 -3 9 11 12 51 12 53 0 56 1
56 25 0 59 -78 94 -128 59z m62 -30 c26 -10 18 -24 -14 -24 -29 0 -38 9 -23
23 8 9 17 9 37 1z"/>
<path d="M5888 4439 c-11 -6 -18 -22 -18 -40 0 -26 6 -32 45 -49 25 -11 45
-22 45 -25 0 -3 -23 -3 -51 1 -49 7 -51 6 -40 -13 31 -59 155 -32 132 29 -5
14 -24 27 -50 36 -31 10 -40 17 -32 25 9 9 17 8 31 -1 45 -28 71 2 28 32 -26
18 -65 20 -90 5z"/>
<path d="M5805 3840 c-4 -7 -3 -16 3 -22 14 -14 45 -2 40 15 -6 16 -34 21 -43
7z"/>
<path d="M6650 3751 c0 -90 0 -91 25 -91 23 0 25 3 25 50 0 42 3 50 19 50 22
0 31 -19 31 -66 0 -28 4 -34 21 -34 20 0 21 4 17 55 -5 64 -16 78 -57 77 -23
0 -30 4 -33 21 -2 14 -11 23 -25 25 -22 3 -23 1 -23 -87z"/>
<path d="M4940 3745 c0 -78 2 -85 19 -85 17 0 20 8 23 48 l3 47 16 -45 c11
-32 21 -45 35 -45 13 0 24 14 36 45 l17 45 0 -47 c1 -41 4 -48 21 -48 18 0 20
7 20 85 0 83 -1 85 -24 85 -19 0 -27 -9 -41 -47 -10 -27 -21 -52 -25 -56 -4
-5 -17 17 -30 47 -18 46 -27 56 -46 56 -23 0 -24 -2 -24 -85z"/>
<path d="M5461 3798 c-11 -24 -11 -33 -3 -36 7 -2 12 -23 12 -47 0 -30 5 -45
16 -49 27 -10 44 -7 44 9 0 8 -4 15 -10 15 -5 0 -10 16 -10 35 0 19 5 35 10
35 6 0 10 7 10 15 0 8 -4 15 -9 15 -5 0 -11 9 -14 20 -8 30 -30 24 -46 -12z"/>
<path d="M6250 3745 c0 -84 0 -85 25 -85 21 0 25 5 25 30 0 25 4 30 23 30 29
0 57 29 57 58 0 30 -37 52 -87 52 l-43 0 0 -85z m79 46 c17 -11 7 -41 -14 -41
-9 0 -15 9 -15 25 0 27 6 30 29 16z"/>
<path d="M6561 3806 c-10 -25 -4 -100 11 -128 10 -21 58 -24 58 -4 0 8 -7 16
-15 20 -9 3 -15 18 -15 36 0 20 5 30 15 30 8 0 15 7 15 15 0 8 -7 15 -15 15
-8 0 -15 9 -15 20 0 28 -29 25 -39 -4z"/>
<path d="M5174 3775 c-21 -21 -25 -32 -20 -57 10 -48 22 -57 82 -57 l54 1 0
64 c0 64 0 64 -27 63 -16 -1 -36 2 -45 6 -12 5 -26 -2 -44 -20z m74 -44 c3
-21 -11 -40 -30 -41 -4 0 -12 9 -18 21 -9 15 -8 24 1 35 17 21 43 13 47 -15z"/>
<path d="M5350 3787 c-36 -18 -32 -49 8 -66 42 -19 41 -34 -3 -25 -39 7 -48
-8 -16 -26 26 -14 64 -13 79 2 23 23 13 48 -23 64 -20 8 -33 19 -29 25 4 8 10
7 17 0 13 -13 47 -15 47 -2 0 10 -39 41 -50 41 -3 0 -16 -6 -30 -13z"/>
<path d="M5585 3788 c-11 -6 -23 -16 -27 -22 -14 -21 -8 -73 10 -89 22 -20 73
-22 90 -5 21 21 13 29 -24 26 -23 -2 -39 2 -41 10 -3 8 9 12 41 12 37 0 46 3
46 18 0 23 -10 37 -37 51 -26 14 -33 13 -58 -1z m50 -38 c4 -6 -5 -10 -20 -10
-15 0 -24 4 -20 10 3 6 12 10 20 10 8 0 17 -4 20 -10z"/>
<path d="M5957 3793 c-4 -3 -23 -6 -42 -5 l-35 1 0 -64 c0 -58 2 -65 19 -65
17 0 20 8 23 48 3 39 6 47 23 47 17 0 20 -8 23 -47 3 -40 6 -48 23 -48 18 0
20 6 17 56 -2 44 -8 60 -24 70 -11 8 -24 11 -27 7z"/>
<path d="M6055 3776 c-29 -29 -32 -62 -9 -95 14 -19 23 -22 50 -18 26 4 34 2
34 -9 0 -22 -28 -28 -56 -14 -27 15 -39 9 -30 -15 7 -20 53 -37 77 -30 40 13
49 33 49 116 l0 79 -27 -1 c-16 -1 -36 2 -45 6 -12 4 -25 -1 -43 -19z m73 -42
c4 -29 -23 -51 -43 -34 -18 15 -19 32 -3 48 18 18 42 10 46 -14z"/>
<path d="M6850 3789 c-13 -6 -28 -15 -32 -22 -14 -22 -8 -74 10 -90 25 -22 75
-21 95 1 17 19 22 68 9 88 -6 10 -47 35 -54 33 -2 0 -14 -5 -28 -10z m48 -58
c4 -26 -13 -42 -35 -34 -14 5 -18 45 -6 57 14 14 38 0 41 -23z"/>
<path d="M7031 3791 c-7 -5 -23 -6 -37 -3 -23 4 -24 3 -24 -62 0 -59 2 -66 20
-66 17 0 20 7 20 51 0 47 2 50 23 47 19 -3 22 -10 25 -50 3 -40 6 -48 23 -48
16 0 19 7 19 48 0 27 -6 55 -12 64 -17 20 -42 28 -57 19z"/>
<path d="M5700 3725 c0 -63 1 -65 25 -65 23 0 25 4 25 45 0 38 3 45 20 45 13
0 20 7 20 19 0 15 -8 19 -45 19 l-45 1 0 -64z"/>
<path d="M5810 3725 c0 -58 2 -65 20 -65 18 0 20 7 20 65 0 58 -2 65 -20 65
-18 0 -20 -7 -20 -65z"/>
<path d="M6416 3729 c21 -51 23 -67 15 -92 -14 -39 -14 -37 9 -37 11 0 20 1
20 3 0 2 18 45 39 95 38 89 39 92 18 92 -16 0 -26 -11 -38 -38 l-15 -37 -14
38 c-11 27 -20 37 -36 37 l-23 0 25 -61z"/>
<path d="M10560 3635 c0 -9 5 -15 11 -13 6 2 11 8 11 13 0 5 -5 11 -11 13 -6
2 -11 -4 -11 -13z"/>
<path d="M4360 3560 c0 -63 3 -80 15 -80 10 0 15 15 17 58 l3 57 21 -54 c11
-30 25 -56 31 -58 5 -2 21 22 35 54 l26 58 1 -57 c1 -45 5 -58 16 -58 12 0 15
16 15 80 0 71 -2 80 -18 80 -13 0 -27 -18 -46 -62 l-28 -63 -24 54 c-13 29
-24 57 -24 62 0 5 -9 9 -20 9 -18 0 -20 -7 -20 -80z"/>
<path d="M10401 3633 c2 -5 15 -39 28 -76 17 -44 30 -67 39 -65 14 3 62 108
62 135 0 31 -20 9 -36 -39 -24 -77 -25 -77 -48 -13 -12 32 -27 61 -35 63 -7 2
-12 0 -10 -5z"/>
<path d="M10560 3550 c0 -33 4 -60 10 -60 6 0 10 27 10 60 0 33 -4 60 -10 60
-6 0 -10 -27 -10 -60z"/>
<path d="M10632 3594 c-41 -28 -21 -104 28 -104 25 0 50 10 50 21 0 5 -16 7
-36 6 -22 -1 -39 3 -41 11 -3 8 9 12 41 12 39 0 46 3 46 19 0 20 -34 51 -55
51 -6 0 -21 -7 -33 -16z m58 -19 c11 -13 7 -15 -25 -15 -32 0 -36 2 -25 15 7
8 18 15 25 15 7 0 18 -7 25 -15z"/>
<path d="M10737 3604 c-9 -10 29 -109 43 -109 7 0 18 18 24 40 l11 39 13 -42
c16 -54 35 -54 49 1 7 23 15 50 19 61 5 13 3 17 -7 14 -7 -2 -19 -24 -25 -49
l-11 -44 -13 48 c-15 55 -31 57 -44 4 -12 -46 -22 -47 -30 -2 -7 34 -18 50
-29 39z"/>
<path d="M7870 3470 c0 -5 5 -10 10 -10 6 0 10 5 10 10 0 6 -4 10 -10 10 -5 0
-10 -4 -10 -10z"/>
<path d="M8318 3453 c-15 -31 -13 -153 2 -153 6 0 10 27 10 59 0 48 3 60 18
64 16 4 16 5 0 6 -21 1 -24 21 -6 39 8 8 9 12 1 12 -6 0 -17 -12 -25 -27z"/>
<path d="M6030 3385 c0 -92 17 -118 22 -34 2 36 8 55 21 63 30 19 51 -5 58
-65 l6 -54 1 56 c2 59 -9 79 -43 79 -12 0 -26 -5 -33 -12 -9 -9 -12 -5 -12 20
0 18 -4 32 -10 32 -6 0 -10 -35 -10 -85z"/>
<path d="M9703 3385 c0 -79 1 -83 6 -35 4 30 4 71 0 90 -4 23 -7 4 -6 -55z"/>
<path d="M4952 3383 l-2 -83 38 1 c36 1 36 2 7 8 -29 6 -30 8 -36 81 l-5 75
-2 -82z"/>
<path d="M5672 3378 c1 -46 3 -66 5 -45 4 33 7 37 32 37 41 0 63 21 59 55 -3
28 -6 30 -50 33 l-48 3 2 -83z m86 45 c4 -26 -29 -47 -58 -38 -14 4 -20 15
-20 36 0 29 2 30 38 27 29 -2 38 -8 40 -25z"/>
<path d="M5951 3448 c0 -9 -7 -19 -13 -21 -10 -4 -10 -6 0 -6 8 -1 12 -18 12
-49 0 -50 13 -72 40 -71 11 0 9 4 -7 16 -17 11 -23 25 -23 55 0 31 5 40 23 48
l22 9 -22 0 c-12 1 -24 9 -26 19 -4 15 -5 15 -6 0z"/>
<path d="M9471 3448 c0 -9 -7 -19 -13 -21 -10 -4 -10 -6 0 -6 8 -1 12 -18 12
-49 0 -50 13 -72 40 -71 11 0 9 4 -7 16 -17 11 -23 25 -23 55 0 31 5 40 23 48
l22 9 -22 0 c-12 1 -24 9 -26 19 -4 15 -5 15 -6 0z"/>
<path d="M5073 3422 c-36 -23 -32 -90 8 -115 21 -13 65 -2 73 18 5 14 4 14
-16 0 -28 -19 -43 -19 -62 1 -26 26 -18 34 34 34 46 0 50 2 50 25 0 36 -53 59
-87 37z m58 -12 c36 -20 23 -40 -26 -40 -48 0 -62 19 -27 39 22 13 29 13 53 1z"/>
<path d="M5222 3423 c-7 -3 -18 -17 -23 -31 -21 -56 31 -109 80 -82 14 7 21 7
21 0 0 -5 5 -10 10 -10 6 0 10 28 10 65 0 37 -4 65 -10 65 -5 0 -10 -5 -10
-12 0 -9 -3 -9 -12 0 -12 12 -43 15 -66 5z m59 -13 c29 -16 27 -78 -3 -89 -41
-15 -68 5 -68 51 0 39 34 57 71 38z"/>
<path d="M5360 3365 c0 -37 4 -65 10 -65 6 0 10 23 10 51 0 42 3 52 20 56 11
3 20 9 20 14 0 13 -14 11 -28 -3 -9 -9 -12 -9 -12 0 0 7 -4 12 -10 12 -6 0
-10 -28 -10 -65z"/>
<path d="M5450 3365 c0 -77 18 -88 22 -14 2 36 8 55 21 63 30 19 51 -5 58 -65
l6 -54 1 56 c2 59 -9 79 -43 79 -12 0 -26 -5 -33 -12 -9 -9 -12 -9 -12 0 0 7
-4 12 -10 12 -6 0 -10 -28 -10 -65z"/>
<path d="M5800 3429 c0 -3 11 -33 25 -68 20 -48 23 -66 15 -82 -6 -11 -10 -25
-8 -31 2 -6 21 31 42 81 21 51 36 95 33 97 -3 3 -14 -17 -24 -45 -10 -28 -22
-50 -27 -48 -5 2 -15 21 -23 42 -12 35 -33 69 -33 54z"/>
<path d="M6196 3411 c-26 -29 -18 -82 17 -101 24 -13 30 -13 55 0 55 31 34
120 -28 120 -15 0 -35 -9 -44 -19z m76 -8 c26 -23 23 -59 -7 -79 -23 -15 -27
-15 -50 0 -29 19 -32 51 -8 78 20 22 41 23 65 1z"/>
<path d="M6341 3360 c2 -63 2 -64 8 -19 15 104 80 108 92 7 l6 -53 2 56 c1 67
-10 80 -67 76 l-42 -2 1 -65z"/>
<path d="M6562 3335 c1 -55 3 -81 5 -57 4 40 15 53 28 32 10 -16 51 -11 68 8
49 54 -21 150 -71 100 -10 -10 -15 -10 -22 2 -6 10 -9 -19 -8 -85z m90 68 c26
-23 23 -59 -7 -79 -23 -15 -27 -15 -50 0 -29 19 -32 51 -8 78 20 22 41 23 65
1z"/>
<path d="M6721 3365 c2 -67 2 -68 8 -21 5 34 14 53 32 67 13 10 19 19 14 19
-6 0 -17 -6 -23 -12 -10 -10 -15 -10 -22 2 -7 10 -9 -8 -9 -55z"/>
<path d="M6820 3410 c-39 -39 -11 -110 43 -110 32 0 57 30 57 68 0 58 -59 83
-100 42z m74 -6 c23 -22 20 -60 -6 -78 -12 -9 -26 -16 -30 -16 -14 0 -48 39
-48 55 0 19 35 55 54 55 8 0 22 -7 30 -16z"/>
<path d="M6976 3414 c-25 -25 -24 -68 2 -97 16 -18 36 -18 75 -2 13 5 17 2 17
-13 0 -44 -53 -67 -84 -37 -22 22 -32 18 -11 -5 23 -25 67 -26 88 -2 13 14 17
38 17 98 0 53 -3 74 -10 64 -7 -12 -12 -12 -22 -2 -17 17 -53 15 -72 -4z m74
-14 c11 -11 20 -27 20 -35 0 -16 -34 -55 -48 -55 -4 0 -18 7 -30 16 -26 18
-29 56 -6 78 21 21 40 20 64 -4z"/>
<path d="M7132 3365 c2 -64 2 -66 5 -16 3 42 8 54 24 58 10 3 19 9 19 14 0 13
-17 11 -26 -2 -4 -8 -9 -7 -15 2 -5 9 -8 -14 -7 -56z"/>
<path d="M7226 3414 c-26 -26 -24 -69 5 -99 17 -17 23 -18 51 -7 25 9 34 9 40
-1 4 -6 8 20 8 58 0 48 -3 65 -10 55 -7 -12 -12 -12 -22 -2 -17 17 -53 15 -72
-4z m74 -14 c11 -11 20 -27 20 -35 0 -16 -34 -55 -48 -55 -4 0 -18 7 -30 16
-26 18 -29 56 -6 78 21 21 40 20 64 -4z"/>
<path d="M7382 3365 c2 -63 2 -65 5 -17 3 44 8 55 28 64 37 17 55 -4 56 -66
l2 -51 6 46 c15 104 80 108 92 7 l6 -53 2 48 c0 27 -4 57 -9 68 -13 23 -52 25
-73 4 -13 -13 -16 -13 -27 0 -15 18 -56 20 -66 4 -4 -8 -9 -7 -15 2 -5 9 -8
-14 -7 -56z"/>
<path d="M7620 3365 c0 -37 4 -65 10 -65 6 0 10 22 10 49 0 54 17 77 49 66 21
-6 28 -23 34 -85 3 -29 4 -27 5 12 4 102 82 108 82 6 0 -26 5 -48 10 -48 16 0
12 83 -6 108 -17 24 -53 29 -72 10 -9 -9 -15 -9 -24 0 -7 7 -21 12 -33 12 -12
0 -26 -5 -33 -12 -9 -9 -12 -9 -12 0 0 7 -4 12 -10 12 -6 0 -10 -28 -10 -65z"/>
<path d="M7873 3365 c0 -38 2 -53 4 -32 2 20 2 52 0 70 -2 17 -4 1 -4 -38z"/>
<path d="M7931 3360 c2 -63 2 -64 8 -19 15 104 80 108 92 7 l6 -53 2 56 c1 67
-10 80 -67 76 l-42 -2 1 -65z"/>
<path d="M8096 3414 c-25 -25 -24 -68 2 -97 16 -18 36 -18 75 -2 13 5 17 2 17
-13 0 -44 -53 -67 -84 -37 -22 22 -32 18 -11 -5 23 -25 67 -26 88 -2 13 14 17
38 17 98 0 53 -3 74 -10 64 -7 -12 -12 -12 -22 -2 -17 17 -53 15 -72 -4z m74
-14 c11 -11 20 -27 20 -35 0 -16 -34 -55 -48 -55 -4 0 -18 7 -30 16 -26 18
-29 56 -6 78 21 21 40 20 64 -4z"/>
<path d="M8392 3365 l1 -70 7 55 c4 30 3 62 -1 70 -5 9 -8 -14 -7 -55z"/>
<path d="M8415 3420 c-3 -5 1 -10 9 -10 9 0 16 5 16 10 0 6 -4 10 -9 10 -6 0
-13 -4 -16 -10z"/>
<path d="M8490 3410 c-39 -39 -11 -110 43 -110 32 0 57 30 57 68 0 58 -59 83
-100 42z m74 -6 c23 -22 20 -60 -6 -78 -12 -9 -26 -16 -30 -16 -14 0 -48 39
-48 55 0 19 35 55 54 55 8 0 22 -7 30 -16z"/>
<path d="M8630 3365 c0 -37 4 -65 10 -65 6 0 10 22 10 49 0 54 17 77 49 66 21
-6 28 -23 34 -85 3 -29 4 -27 5 12 4 102 82 108 82 6 0 -26 5 -48 10 -48 16 0
12 83 -6 108 -17 24 -53 29 -72 10 -9 -9 -15 -9 -24 0 -7 7 -21 12 -33 12 -12
0 -26 -5 -33 -12 -9 -9 -12 -9 -12 0 0 7 -4 12 -10 12 -6 0 -10 -28 -10 -65z"/>
<path d="M8949 3414 c-16 -20 -1 -48 29 -52 32 -5 45 -27 26 -43 -12 -10 -20
-10 -35 -1 -26 16 -34 15 -19 -3 28 -34 96 -3 73 33 -5 10 -19 18 -31 20 -30
5 -50 31 -31 43 19 12 36 11 44 -1 3 -5 11 -10 17 -10 7 0 6 6 -2 15 -16 20
-54 19 -71 -1z"/>
<path d="M9076 3408 c-9 -12 -16 -33 -16 -45 0 -26 33 -63 56 -63 21 0 54 19
54 31 0 5 -11 2 -24 -6 -47 -31 -93 22 -62 70 19 29 42 32 68 8 20 -18 25 -4
6 15 -20 20 -65 14 -82 -10z"/>
<path d="M9210 3365 c0 -37 4 -65 10 -65 6 0 10 23 10 51 0 42 3 52 20 56 11
3 20 9 20 14 0 13 -14 11 -28 -3 -9 -9 -12 -9 -12 0 0 7 -4 12 -10 12 -6 0
-10 -28 -10 -65z"/>
<path d="M9316 3414 c-26 -26 -24 -69 5 -99 17 -17 23 -18 51 -7 25 9 34 9 40
-1 4 -6 8 20 8 58 0 48 -3 65 -10 55 -7 -12 -12 -12 -22 -2 -17 17 -53 15 -72
-4z m74 -14 c11 -11 20 -27 20 -35 0 -16 -34 -55 -48 -55 -4 0 -18 7 -30 16
-26 18 -29 56 -6 78 21 21 40 20 64 -4z"/>
<path d="M9566 3414 c-38 -37 -11 -114 40 -114 22 0 60 28 50 37 -3 3 -12 -2
-21 -11 -32 -32 -75 -7 -75 44 0 44 44 64 75 34 9 -9 19 -13 23 -9 10 10 -28
35 -54 35 -13 0 -30 -7 -38 -16z"/>
<path d="M9724 3418 c-5 -8 -2 -9 11 -4 40 15 55 -2 55 -60 0 -30 5 -54 10
-54 17 0 12 97 -6 114 -18 19 -60 21 -70 4z"/>
<path d="M9850 3309 c0 -5 5 -7 10 -4 6 3 10 8 10 11 0 2 -4 4 -10 4 -5 0 -10
-5 -10 -11z"/>
<path d="M9890 3310 c0 -5 5 -10 10 -10 6 0 10 5 10 10 0 6 -4 10 -10 10 -5 0
-10 -4 -10 -10z"/>
<path d="M9940 3309 c0 -5 5 -7 10 -4 6 3 10 8 10 11 0 2 -4 4 -10 4 -5 0 -10
-5 -10 -11z"/>
<path d="M5185 2778 c-3 -7 -18 -68 -34 -136 -28 -120 -28 -123 -8 -120 17 3
24 21 48 123 33 140 34 145 14 145 -9 0 -18 -6 -20 -12z"/>
<path d="M6090 2730 c0 -13 7 -20 20 -20 13 0 20 7 20 20 0 13 -7 20 -20 20
-13 0 -20 -7 -20 -20z"/>
<path d="M7080 2710 c0 -28 -2 -30 -21 -20 -16 9 -26 8 -45 -4 -31 -21 -39
-57 -22 -93 12 -25 18 -28 71 -30 l57 -2 0 90 c0 82 -1 89 -20 89 -16 0 -20
-7 -20 -30z m-2 -79 c3 -21 -11 -40 -30 -41 -4 0 -12 9 -18 21 -9 15 -8 24 1
35 17 21 43 13 47 -15z"/>
<path d="M8140 2650 c0 -83 1 -90 20 -90 19 0 20 7 20 90 0 83 -1 90 -20 90
-19 0 -20 -7 -20 -90z"/>
<path d="M4890 2674 c0 -54 12 -92 34 -106 19 -13 60 -9 84 8 19 13 22 24 22
85 0 62 -2 69 -20 69 -18 0 -20 -7 -20 -65 0 -62 -1 -65 -24 -65 -29 0 -36 16
-36 81 0 42 -3 49 -20 49 -18 0 -20 -7 -20 -56z"/>
<path d="M5060 2646 c0 -85 0 -86 25 -86 26 0 26 0 23 83 -3 76 -5 82 -25 85
-22 3 -23 1 -23 -82z"/>
<path d="M5240 2665 c0 -75 20 -105 70 -105 50 0 70 30 70 105 0 58 -2 65 -20
65 -16 0 -19 -8 -22 -62 -3 -60 -4 -63 -28 -63 -24 0 -25 3 -28 63 -3 54 -6
62 -22 62 -18 0 -20 -7 -20 -65z"/>
<path d="M5428 2687 l30 -42 -24 -35 c-13 -19 -24 -38 -24 -42 0 -17 39 -7 54
15 l16 22 16 -22 c9 -13 27 -23 41 -23 l24 0 -26 37 c-14 21 -25 41 -25 46 0
4 11 25 25 47 l25 40 -23 0 c-14 0 -29 -10 -38 -27 l-17 -26 -17 26 c-11 17
-26 27 -42 27 l-24 0 29 -43z"/>
<path d="M5630 2646 l0 -86 49 0 c67 0 103 30 103 84 0 55 -27 78 -96 84 l-56
4 0 -86z m105 -1 c0 -36 -3 -40 -27 -43 -27 -3 -28 -2 -28 43 0 45 1 46 28 43
24 -3 27 -7 27 -43z"/>
<path d="M6540 2646 c0 -79 2 -86 20 -86 16 0 20 7 20 35 0 31 3 35 25 35 16
0 25 6 25 15 0 9 -9 15 -25 15 -18 0 -25 5 -25 20 0 16 7 20 36 20 57 0 36 24
-24 28 l-52 3 0 -85z"/>
<path d="M7881 2698 c-11 -24 -11 -33 -3 -36 7 -2 12 -20 12 -41 0 -43 14 -61
47 -61 26 0 32 25 8 34 -9 3 -15 18 -15 36 0 20 5 30 15 30 8 0 15 7 15 15 0
8 -6 15 -14 15 -7 0 -16 9 -19 20 -8 30 -30 24 -46 -12z"/>
<path d="M5843 2690 c-44 -18 -56 -77 -23 -110 26 -26 72 -26 96 1 l19 21 -44
-4 c-29 -2 -45 1 -48 10 -3 8 9 12 41 12 42 0 46 2 46 24 0 38 -46 62 -87 46z
m47 -40 c0 -5 -12 -10 -26 -10 -14 0 -23 4 -19 10 3 6 15 10 26 10 10 0 19 -4
19 -10z"/>
<path d="M5980 2687 c-36 -18 -32 -49 8 -66 42 -19 41 -34 -3 -25 -39 7 -48
-8 -16 -26 26 -14 64 -13 79 2 23 23 13 48 -23 64 -20 8 -33 19 -29 25 4 8 10
7 17 0 13 -13 47 -15 47 -2 0 10 -39 41 -50 41 -3 0 -16 -6 -30 -13z"/>
<path d="M6174 2675 c-21 -21 -25 -32 -20 -57 9 -46 25 -60 63 -56 23 3 33 0
33 -9 0 -19 -29 -28 -43 -14 -15 15 -47 14 -47 -3 0 -22 29 -40 65 -40 56 0
65 16 65 110 l0 84 -27 -1 c-16 -1 -36 2 -45 6 -12 5 -26 -2 -44 -20z m74 -44
c3 -21 -11 -40 -30 -41 -4 0 -12 9 -18 21 -9 15 -8 24 1 35 17 21 43 13 47
-15z"/>
<path d="M6363 2692 l-43 -3 0 -65 c0 -62 1 -64 25 -64 23 0 25 3 25 50 0 42
3 50 19 50 22 0 31 -19 31 -66 0 -27 4 -34 20 -34 17 0 20 7 20 39 0 52 -14
87 -37 92 -10 2 -37 3 -60 1z"/>
<path d="M6907 2693 c-4 -3 -23 -6 -42 -5 l-35 1 0 -64 c0 -58 2 -65 19 -65
17 0 20 8 23 48 3 39 6 47 23 47 17 0 20 -8 23 -47 3 -40 6 -48 23 -48 18 0
20 6 17 56 -2 44 -8 60 -24 70 -11 8 -24 11 -27 7z"/>
<path d="M7179 2687 c-19 -10 -25 -22 -27 -54 -4 -56 14 -71 83 -71 l55 1 0
63 0 63 -33 -1 c-19 -1 -38 2 -43 5 -6 3 -21 0 -35 -6z m60 -41 c9 -11 10 -20
1 -35 -12 -23 -12 -23 -34 -15 -16 6 -22 45 -9 57 11 11 30 8 42 -7z"/>
<path d="M7358 2692 l-38 -3 0 -65 c0 -57 2 -64 19 -64 17 0 20 8 23 48 3 39
6 47 23 47 17 0 20 -8 23 -47 3 -39 7 -48 22 -48 15 0 19 9 22 48 3 39 6 47
23 47 17 0 20 -8 23 -47 3 -40 6 -48 23 -48 18 0 20 6 17 57 -3 49 -6 59 -27
70 -17 8 -30 9 -44 2 -11 -6 -29 -7 -45 -2 -15 4 -44 7 -64 5z"/>
<path d="M7600 2687 c-51 -26 -48 -110 5 -123 34 -8 71 2 79 22 5 14 1 16 -28
11 -24 -4 -39 -1 -47 9 -10 12 -3 14 40 14 50 0 52 1 46 23 -14 45 -55 64 -95
44z m50 -37 c0 -5 -12 -10 -26 -10 -14 0 -23 4 -19 10 3 6 15 10 26 10 10 0
19 -4 19 -10z"/>
<path d="M7797 2693 c-4 -3 -23 -6 -42 -5 l-35 1 0 -64 c0 -58 2 -65 19 -65
17 0 20 8 23 48 3 39 6 47 23 47 17 0 20 -8 23 -47 3 -40 6 -48 23 -48 18 0
20 6 17 56 -2 44 -8 60 -24 70 -11 8 -24 11 -27 7z"/>
<path d="M7995 2676 c-28 -28 -32 -61 -10 -93 12 -18 25 -21 70 -21 l55 1 0
63 c0 64 0 64 -27 63 -16 -1 -36 2 -45 6 -12 4 -25 -1 -43 -19z m73 -42 c4
-29 -23 -51 -43 -34 -18 15 -19 32 -3 48 18 18 42 10 46 -14z"/>
<path d="M8232 2689 c-18 -7 -23 -15 -20 -36 2 -21 10 -29 36 -37 43 -12 41
-29 -3 -20 -19 3 -35 2 -35 -3 0 -18 25 -33 56 -33 61 0 74 58 16 75 -17 5
-32 15 -32 22 0 16 12 17 27 2 6 -6 18 -9 27 -7 14 2 15 6 4 19 -17 22 -48 30
-76 18z"/>
<path d="M6090 2625 c0 -58 2 -65 20 -65 18 0 20 7 20 65 0 58 -2 65 -20 65
-18 0 -20 -7 -20 -65z"/>
<path d="M6670 2636 c0 -31 5 -58 13 -64 6 -5 36 -10 65 -10 l52 0 0 64 c0 57
-2 64 -19 64 -17 0 -20 -8 -23 -47 -3 -40 -6 -48 -23 -48 -17 0 -20 8 -23 48
-3 39 -6 47 -23 47 -16 0 -19 -7 -19 -54z"/>
<path d="M10560 2535 c0 -9 5 -15 11 -13 6 2 11 8 11 13 0 5 -5 11 -11 13 -6
2 -11 -4 -11 -13z"/>
<path d="M4360 2480 c0 -68 21 -100 65 -100 44 0 65 32 65 100 0 46 -3 60 -15
60 -10 0 -15 -16 -17 -62 -3 -63 -3 -63 -33 -63 -30 0 -30 0 -33 63 -2 46 -7
62 -17 62 -12 0 -15 -14 -15 -60z"/>
<path d="M10401 2533 c2 -5 15 -39 28 -76 17 -44 30 -67 39 -65 14 3 62 108
62 135 0 31 -20 9 -36 -39 -24 -77 -25 -77 -48 -13 -12 32 -27 61 -35 63 -7 2
-12 0 -10 -5z"/>
<path d="M10560 2450 c0 -33 4 -60 10 -60 6 0 10 27 10 60 0 33 -4 60 -10 60
-6 0 -10 -27 -10 -60z"/>
<path d="M10632 2494 c-41 -28 -21 -104 28 -104 25 0 50 10 50 21 0 5 -16 7
-36 6 -22 -1 -39 3 -41 11 -3 8 9 12 41 12 39 0 46 3 46 19 0 20 -34 51 -55
51 -6 0 -21 -7 -33 -16z m58 -19 c11 -13 7 -15 -25 -15 -32 0 -36 2 -25 15 7
8 18 15 25 15 7 0 18 -7 25 -15z"/>
<path d="M10737 2504 c-9 -10 29 -109 43 -109 7 0 18 18 24 40 l11 39 13 -42
c16 -54 35 -54 49 1 7 23 15 50 19 61 5 13 3 17 -7 14 -7 -2 -19 -24 -25 -49
l-11 -44 -13 48 c-15 55 -31 57 -44 4 -12 -46 -22 -47 -30 -2 -7 34 -18 50
-29 39z"/>
<path d="M6930 2370 c0 -5 5 -10 10 -10 6 0 10 5 10 10 0 6 -4 10 -10 10 -5 0
-10 -4 -10 -10z"/>
<path d="M8085 2370 c-3 -5 -1 -10 4 -10 6 0 11 5 11 10 0 6 -2 10 -4 10 -3 0
-8 -4 -11 -10z"/>
<path d="M8157 2373 c-4 -3 -7 -15 -7 -25 0 -10 -5 -18 -11 -18 -8 0 -8 -4 -1
-13 6 -7 12 -37 15 -67 l3 -55 2 62 c2 49 5 62 20 66 16 4 16 5 0 6 -10 0 -18
8 -18 16 0 7 8 19 18 24 14 9 15 10 1 11 -9 0 -19 -3 -22 -7z"/>
<path d="M5620 2285 c0 -92 17 -118 22 -34 2 36 8 55 21 63 30 19 51 -5 58
-65 l6 -54 1 56 c2 59 -9 79 -43 79 -12 0 -26 -5 -33 -12 -9 -9 -12 -5 -12 20
0 18 -4 32 -10 32 -6 0 -10 -35 -10 -85z"/>
<path d="M6600 2340 c0 -27 -2 -30 -19 -20 -50 26 -95 -5 -89 -61 4 -44 46
-71 79 -51 18 12 23 12 30 0 5 -8 9 22 9 75 0 48 -2 87 -5 87 -3 0 -5 -14 -5
-30z m-18 -37 c26 -23 23 -59 -6 -78 -48 -32 -100 32 -61 75 22 24 43 25 67 3z"/>
<path d="M7372 2285 c-1 -53 2 -84 7 -76 7 10 13 11 31 1 51 -27 103 26 81 83
-12 31 -55 46 -82 28 -26 -16 -27 -15 -32 22 -2 17 -4 -8 -5 -58z m89 25 c20
-11 26 -54 10 -79 -10 -16 -58 -18 -73 -3 -17 17 -12 64 8 79 22 16 29 16 55
3z"/>
<path d="M8384 2285 c0 -49 1 -71 3 -48 2 23 2 64 0 90 -2 26 -3 8 -3 -42z"/>
<path d="M8920 2340 c0 -27 -2 -30 -19 -20 -50 26 -95 -5 -89 -61 4 -44 46
-71 79 -51 18 12 23 12 30 0 5 -8 9 22 9 75 0 48 -2 87 -5 87 -3 0 -5 -14 -5
-30z m-18 -37 c26 -23 23 -59 -6 -78 -48 -32 -100 32 -61 75 22 24 43 25 67 3z"/>
<path d="M4902 2283 l-2 -83 38 1 37 1 -32 9 c-32 9 -32 10 -36 82 l-3 72 -2
-82z"/>
<path d="M6201 2348 c0 -10 -6 -18 -12 -18 -8 0 -8 -4 -1 -13 6 -7 12 -35 14
-62 2 -41 7 -50 23 -53 19 -3 19 -2 3 11 -13 10 -18 28 -18 60 0 35 4 47 18
50 15 4 15 5 0 6 -9 0 -19 9 -21 19 -4 16 -5 16 -6 0z"/>
<path d="M7999 2343 c-3 -53 4 -120 13 -130 6 -7 18 -13 27 -13 14 1 14 2 -1
14 -13 9 -18 27 -18 59 0 35 4 47 18 50 16 4 16 5 0 6 -10 0 -18 8 -18 16 0
21 -20 19 -21 -2z"/>
<path d="M5023 2322 c-36 -23 -32 -90 8 -115 21 -13 65 -2 73 18 5 14 4 14
-16 0 -28 -19 -43 -19 -62 1 -26 26 -18 34 34 34 46 0 50 2 50 25 0 36 -53 59
-87 37z m58 -12 c36 -20 23 -40 -26 -40 -48 0 -62 19 -27 39 22 13 29 13 53 1z"/>
<path d="M5166 2314 c-26 -26 -24 -69 5 -99 17 -17 23 -18 51 -7 25 9 34 9 40
-1 4 -6 8 20 8 58 0 48 -3 65 -10 55 -7 -12 -12 -12 -22 -2 -17 17 -53 15 -72
-4z m74 -14 c11 -11 20 -27 20 -35 0 -16 -34 -55 -48 -55 -4 0 -18 7 -30 16
-26 18 -29 56 -6 78 21 21 40 20 64 -4z"/>
<path d="M5322 2265 c2 -64 2 -66 5 -16 3 42 8 54 24 58 10 3 19 9 19 14 0 13
-17 11 -26 -2 -4 -8 -9 -7 -15 2 -5 9 -8 -14 -7 -56z"/>
<path d="M5412 2265 c2 -63 2 -65 5 -17 3 44 8 55 28 64 37 17 55 -4 55 -63 0
-27 5 -49 10 -49 16 0 12 83 -6 108 -16 23 -58 30 -70 11 -4 -8 -9 -7 -15 2
-5 9 -8 -14 -7 -56z"/>
<path d="M5786 2311 c-26 -29 -18 -82 17 -101 24 -13 30 -13 55 0 55 31 34
120 -28 120 -15 0 -35 -9 -44 -19z m76 -8 c26 -23 23 -59 -7 -79 -23 -15 -27
-15 -50 0 -29 19 -32 51 -8 78 20 22 41 23 65 1z"/>
<path d="M5921 2318 c0 -7 8 -34 17 -60 18 -49 35 -63 40 -31 2 15 1 15 -7 4
-7 -11 -13 -1 -26 42 -15 54 -26 73 -24 45z"/>
<path d="M5990 2294 c-7 -19 -10 -37 -7 -40 2 -3 8 7 11 21 9 35 21 25 36 -30
7 -25 17 -45 21 -45 12 0 12 17 0 24 -5 3 -14 28 -21 56 -7 27 -16 50 -20 50
-5 0 -14 -16 -20 -36z"/>
<path d="M6072 2284 c-17 -63 -10 -66 10 -4 9 28 13 50 9 50 -4 0 -12 -21 -19
-46z"/>
<path d="M6290 2310 c-39 -39 -11 -110 43 -110 32 0 57 30 57 68 0 58 -59 83
-100 42z m74 -6 c23 -22 20 -60 -6 -78 -12 -9 -26 -16 -30 -16 -14 0 -48 39
-48 55 0 19 35 55 54 55 8 0 22 -7 30 -16z"/>
<path d="M6666 2308 c-9 -12 -16 -33 -16 -45 0 -26 33 -63 56 -63 21 0 54 19
54 31 0 5 -11 2 -24 -6 -27 -18 -59 -9 -70 20 -4 12 4 15 49 15 47 0 55 3 55
18 0 48 -76 70 -104 30z m72 0 c24 -24 13 -38 -28 -38 -26 0 -40 5 -40 13 0
18 21 37 40 37 9 0 21 -5 28 -12z"/>
<path d="M6810 2315 c-18 -22 -6 -41 34 -55 38 -12 47 -34 20 -44 -8 -3 -25
-1 -36 5 -11 6 -22 8 -25 6 -10 -11 40 -28 63 -23 39 10 33 52 -11 66 -36 12
-46 36 -19 47 8 3 20 1 27 -6 17 -17 31 -13 17 4 -16 19 -54 19 -70 0z"/>
<path d="M6933 2265 c0 -38 2 -53 4 -32 2 20 2 52 0 70 -2 17 -4 1 -4 -38z"/>
<path d="M7012 2323 c-7 -3 -18 -17 -23 -31 -21 -56 31 -109 80 -82 19 9 21 8
21 -13 0 -44 -43 -62 -75 -31 -9 9 -18 14 -21 11 -11 -10 29 -37 56 -37 44 0
60 31 60 117 0 42 -4 73 -10 73 -5 0 -10 -5 -10 -12 0 -9 -3 -9 -12 0 -12 12
-43 15 -66 5z m59 -13 c29 -16 27 -78 -3 -89 -41 -15 -68 5 -68 51 0 39 34 57
71 38z"/>
<path d="M7150 2265 c0 -77 18 -88 22 -14 2 36 8 55 21 63 30 19 51 -5 58 -65
l6 -54 1 56 c2 59 -9 79 -43 79 -12 0 -26 -5 -33 -12 -9 -9 -12 -9 -12 0 0 7
-4 12 -10 12 -6 0 -10 -28 -10 -65z"/>
<path d="M7553 2322 c-36 -23 -32 -90 8 -115 21 -13 65 -2 73 18 5 14 4 14
-16 0 -28 -19 -43 -19 -62 1 -26 26 -18 34 34 34 46 0 50 2 50 25 0 36 -53 59
-87 37z m58 -12 c36 -20 23 -40 -26 -40 -48 0 -62 19 -27 39 22 13 29 13 53 1z"/>
<path d="M7702 2323 c-7 -3 -18 -17 -23 -31 -21 -56 31 -109 80 -82 14 7 21 7
21 0 0 -5 5 -10 10 -10 6 0 10 28 10 65 0 37 -4 65 -10 65 -5 0 -10 -5 -10
-12 0 -9 -3 -9 -12 0 -12 12 -43 15 -66 5z m59 -13 c29 -16 27 -78 -3 -89 -41
-15 -68 5 -68 51 0 39 34 57 71 38z"/>
<path d="M7841 2284 c-1 -66 24 -94 69 -77 21 8 30 8 34 -1 2 -6 4 21 4 59
l-1 70 -6 -53 c-6 -46 -20 -71 -42 -72 -21 0 -44 34 -50 76 l-6 49 -2 -51z"/>
<path d="M8093 2265 c0 -38 2 -53 4 -32 2 20 2 52 0 70 -2 17 -4 1 -4 -38z"/>
<path d="M8221 2284 c-1 -66 24 -94 69 -77 21 8 30 8 34 -1 2 -6 4 21 4 59
l-1 70 -6 -53 c-6 -46 -20 -71 -42 -72 -21 0 -44 34 -50 76 l-6 49 -2 -51z"/>
<path d="M8522 2323 c-7 -3 -18 -17 -23 -31 -21 -56 31 -109 80 -82 14 7 21 7
21 0 0 -5 5 -10 10 -10 6 0 10 28 10 65 0 37 -4 65 -10 65 -5 0 -10 -5 -10
-12 0 -9 -3 -9 -12 0 -12 12 -43 15 -66 5z m59 -13 c29 -16 27 -78 -3 -89 -41
-15 -68 5 -68 51 0 39 34 57 71 38z"/>
<path d="M8660 2265 c0 -77 18 -88 22 -14 2 36 8 55 21 63 30 19 51 -5 58 -65
l6 -54 1 56 c2 59 -9 79 -43 79 -12 0 -26 -5 -33 -12 -9 -9 -12 -9 -12 0 0 7
-4 12 -10 12 -6 0 -10 -28 -10 -65z"/>
<path d="M9041 2284 c-1 -66 24 -94 69 -77 21 8 30 8 34 -1 2 -6 4 21 4 59
l-1 70 -6 -53 c-6 -46 -20 -71 -42 -72 -21 0 -44 34 -50 76 l-6 49 -2 -51z"/>
<path d="M9200 2315 c-18 -22 -6 -41 34 -55 38 -12 47 -34 20 -44 -8 -3 -25
-1 -36 5 -11 6 -22 8 -25 6 -10 -11 40 -28 63 -23 39 10 33 52 -11 66 -36 12
-46 36 -19 47 8 3 20 1 27 -6 17 -17 31 -13 17 4 -16 19 -54 19 -70 0z"/>
<path d="M9339 2320 c-34 -20 -31 -88 5 -112 20 -14 53 -8 71 12 10 11 13 20
7 20 -7 0 -12 -4 -12 -9 0 -16 -38 -23 -60 -11 -39 21 -24 40 30 40 43 0 50 3
50 19 0 41 -51 64 -91 41z m65 -16 c26 -25 19 -34 -29 -34 -48 0 -62 19 -27
39 24 15 38 13 56 -5z"/>
<path d="M9471 2265 c2 -67 2 -68 8 -21 5 34 14 53 32 67 13 10 19 19 14 19
-6 0 -17 -6 -23 -12 -10 -10 -15 -10 -22 2 -7 10 -9 -8 -9 -55z"/>
<path d="M9573 2283 c15 -2 37 -2 50 0 12 2 0 4 -28 4 -27 0 -38 -2 -22 -4z"/>
<path d="M9685 2210 c3 -5 8 -10 11 -10 2 0 4 5 4 10 0 6 -5 10 -11 10 -5 0
-7 -4 -4 -10z"/>
<path d="M9730 2210 c0 -5 5 -10 10 -10 6 0 10 5 10 10 0 6 -4 10 -10 10 -5 0
-10 -4 -10 -10z"/>
<path d="M9775 2210 c3 -5 8 -10 11 -10 2 0 4 5 4 10 0 6 -5 10 -11 10 -5 0
-7 -4 -4 -10z"/>
<path d="M5075 1640 c-4 -7 -3 -16 3 -22 14 -14 45 -2 40 15 -6 16 -34 21 -43
7z"/>
<path d="M5305 1640 c-4 -7 -3 -16 3 -22 14 -14 45 -2 40 15 -6 16 -34 21 -43
7z"/>
<path d="M6640 1630 c0 -13 7 -20 20 -20 13 0 20 7 20 20 0 13 -7 20 -20 20
-13 0 -20 -7 -20 -20z"/>
<path d="M5640 1550 c0 -83 1 -90 20 -90 19 0 20 7 20 90 0 83 -1 90 -20 90
-19 0 -20 -7 -20 -90z"/>
<path d="M6250 1550 c0 -83 1 -90 20 -90 14 0 20 7 20 23 l1 22 18 -22 c18
-22 61 -32 61 -15 0 5 -11 19 -25 32 l-24 23 26 33 25 34 -25 0 c-14 0 -31 -9
-40 -22 -15 -22 -16 -22 -16 25 -1 40 -4 47 -21 47 -19 0 -20 -7 -20 -90z"/>
<path d="M7080 1620 c0 -11 5 -20 10 -20 6 0 10 -30 10 -70 0 -63 2 -70 20
-70 19 0 20 7 20 90 l0 90 -30 0 c-23 0 -30 -4 -30 -20z"/>
<path d="M7199 1621 c-19 -16 -24 -29 -24 -69 0 -81 52 -117 106 -73 19 15 23
28 23 71 0 43 -4 56 -23 71 -29 24 -53 24 -82 0z m65 -46 c10 -37 -3 -75 -25
-75 -12 0 -21 9 -25 25 -9 37 3 75 25 75 12 0 21 -9 25 -25z"/>
<path d="M7327 1633 c-13 -12 -7 -33 8 -33 12 0 15 -14 15 -70 0 -63 2 -70 20
-70 19 0 20 7 20 90 l0 90 -28 0 c-16 0 -32 -3 -35 -7z"/>
<path d="M4900 1545 l0 -85 40 0 c89 0 131 52 99 123 -14 31 -48 47 -99 47
l-40 0 0 -85z m98 33 c29 -29 7 -78 -35 -78 -21 0 -23 5 -23 45 0 40 2 45 23
45 13 0 28 -5 35 -12z"/>
<path d="M5381 1606 c-10 -25 -4 -100 11 -128 10 -21 58 -24 58 -4 0 8 -7 16
-15 20 -9 3 -15 18 -15 36 0 20 5 30 15 30 8 0 15 7 15 15 0 8 -7 15 -15 15
-8 0 -15 9 -15 20 0 28 -29 25 -39 -4z"/>
<path d="M5760 1545 c0 -78 2 -85 20 -85 17 0 20 7 21 48 l0 47 17 -45 c12
-31 23 -45 36 -45 14 0 24 13 35 45 l16 45 3 -47 c3 -40 6 -48 23 -48 17 0 19
7 19 85 0 83 -1 85 -24 85 -19 0 -28 -10 -46 -56 -13 -30 -26 -52 -30 -47 -4
4 -15 29 -25 56 -14 38 -22 47 -41 47 -23 0 -24 -2 -24 -85z"/>
<path d="M6541 1598 c-11 -24 -11 -33 -3 -36 7 -2 12 -20 12 -41 0 -43 14 -61
47 -61 26 0 32 25 8 34 -9 3 -15 18 -15 36 0 20 5 30 15 30 8 0 15 7 15 15 0
8 -6 15 -14 15 -7 0 -16 9 -19 20 -8 30 -30 24 -46 -12z"/>
<path d="M5169 1587 c-19 -10 -25 -22 -27 -54 -4 -54 18 -77 66 -70 28 5 33 3
28 -9 -3 -9 -6 -18 -6 -20 0 -9 -39 -4 -45 6 -7 12 -45 14 -45 3 1 -31 58 -57
94 -43 36 13 46 40 46 119 l0 70 -33 -1 c-19 -1 -38 2 -43 5 -6 3 -21 0 -35
-6z m60 -41 c9 -11 10 -20 1 -35 -12 -23 -12 -23 -34 -15 -16 6 -22 45 -9 57
11 11 30 8 42 -7z"/>
<path d="M5499 1587 c-19 -10 -25 -22 -27 -54 -4 -56 14 -71 83 -71 l55 1 0
63 0 63 -33 -1 c-19 -1 -38 2 -43 5 -6 3 -21 0 -35 -6z m60 -41 c9 -11 10 -20
1 -35 -12 -23 -12 -23 -34 -15 -16 6 -22 45 -9 57 11 11 30 8 42 -7z"/>
<path d="M5995 1576 c-28 -28 -32 -61 -10 -93 12 -18 25 -21 70 -21 l55 1 0
63 c0 64 0 64 -27 63 -16 -1 -36 2 -45 6 -12 4 -25 -1 -43 -19z m73 -42 c4
-29 -23 -51 -43 -34 -18 15 -19 32 -3 48 18 18 42 10 46 -14z"/>
<path d="M6430 1593 c-25 -9 -40 -35 -40 -68 0 -54 51 -81 101 -55 31 17 22
31 -17 28 -23 -2 -39 2 -41 10 -3 8 9 12 41 12 38 0 46 3 46 18 0 33 -55 67
-90 55z m45 -43 c4 -6 -5 -10 -19 -10 -14 0 -26 5 -26 10 0 6 9 10 19 10 11 0
23 -4 26 -10z"/>
<path d="M6787 1593 c-4 -3 -23 -6 -42 -5 l-35 1 0 -64 c0 -58 2 -65 19 -65
17 0 20 8 23 48 3 39 6 47 23 47 17 0 20 -8 23 -47 3 -40 6 -48 23 -48 18 0
20 6 17 56 -2 44 -8 60 -24 70 -11 8 -24 11 -27 7z"/>
<path d="M6884 1575 c-21 -21 -25 -32 -20 -57 9 -46 25 -60 63 -56 23 3 33 0
33 -9 0 -19 -29 -28 -43 -14 -15 15 -47 14 -47 -3 0 -22 29 -40 65 -40 56 0
65 16 65 110 l0 84 -27 -1 c-16 -1 -36 2 -45 6 -12 5 -26 -2 -44 -20z m74 -44
c3 -21 -11 -40 -30 -41 -4 0 -12 9 -18 21 -9 15 -8 24 1 35 17 21 43 13 47
-15z"/>
<path d="M5070 1525 c0 -63 1 -65 25 -65 24 0 25 2 25 65 0 63 -1 65 -25 65
-24 0 -25 -2 -25 -65z"/>
<path d="M5310 1525 c0 -58 2 -65 20 -65 18 0 20 7 20 65 0 58 -2 65 -20 65
-18 0 -20 -7 -20 -65z"/>
<path d="M6140 1525 c0 -63 1 -65 25 -65 23 0 25 4 25 45 0 38 3 45 20 45 13
0 20 7 20 19 0 15 -8 19 -45 19 l-45 1 0 -64z"/>
<path d="M6640 1525 c0 -58 2 -65 20 -65 18 0 20 7 20 65 0 58 -2 65 -20 65
-18 0 -20 -7 -20 -65z"/>
<path d="M10560 1435 c0 -9 5 -15 11 -13 6 2 11 8 11 13 0 5 -5 11 -11 13 -6
2 -11 -4 -11 -13z"/>
<path d="M4360 1360 l0 -80 35 0 c91 0 135 70 84 134 -17 22 -28 26 -70 26
l-49 0 0 -80z m99 46 c7 -8 11 -30 9 -48 -2 -24 -10 -36 -31 -46 -38 -18 -47
-9 -47 54 0 53 1 54 29 54 16 0 34 -6 40 -14z"/>
<path d="M10401 1433 c2 -5 15 -39 28 -76 17 -44 30 -67 39 -65 14 3 62 108
62 135 0 31 -20 9 -36 -39 -24 -77 -25 -77 -48 -13 -12 32 -27 61 -35 63 -7 2
-12 0 -10 -5z"/>
<path d="M10560 1350 c0 -33 4 -60 10 -60 6 0 10 27 10 60 0 33 -4 60 -10 60
-6 0 -10 -27 -10 -60z"/>
<path d="M10632 1394 c-41 -28 -21 -104 28 -104 25 0 50 10 50 21 0 5 -16 7
-36 6 -22 -1 -39 3 -41 11 -3 8 9 12 41 12 39 0 46 3 46 19 0 20 -34 51 -55
51 -6 0 -21 -7 -33 -16z m58 -19 c11 -13 7 -15 -25 -15 -32 0 -36 2 -25 15 7
8 18 15 25 15 7 0 18 -7 25 -15z"/>
<path d="M10737 1404 c-9 -10 29 -109 43 -109 7 0 18 18 24 40 l11 39 13 -42
c16 -54 35 -54 49 1 7 23 15 50 19 61 5 13 3 17 -7 14 -7 -2 -19 -24 -25 -49
l-11 -44 -13 48 c-15 55 -31 57 -44 4 -12 -46 -22 -47 -30 -2 -7 34 -18 50
-29 39z"/>
<path d="M6615 1270 c-3 -5 -1 -10 4 -10 6 0 11 5 11 10 0 6 -2 10 -4 10 -3 0
-8 -4 -11 -10z"/>
<path d="M7515 1270 c-3 -5 -1 -10 4 -10 6 0 11 5 11 10 0 6 -2 10 -4 10 -3 0
-8 -4 -11 -10z"/>
<path d="M8660 1270 c0 -5 5 -10 10 -10 6 0 10 5 10 10 0 6 -4 10 -10 10 -5 0
-10 -4 -10 -10z"/>
<path d="M9705 1270 c-3 -5 -1 -10 4 -10 6 0 11 5 11 10 0 6 -2 10 -4 10 -3 0
-8 -4 -11 -10z"/>
<path d="M5640 1250 c-11 -11 -20 -24 -20 -28 0 -15 33 -39 63 -46 20 -5 27
-12 27 -30 0 -31 -26 -41 -56 -21 -32 21 -41 19 -19 -5 22 -24 58 -26 79 -4
30 30 18 55 -37 78 -27 11 -38 21 -35 33 4 22 43 29 64 13 9 -9 14 -9 14 -2 0
12 -31 32 -49 32 -6 0 -20 -9 -31 -20z"/>
<path d="M5930 1257 c-54 -27 -61 -99 -13 -137 34 -27 69 -25 98 5 41 40 33
105 -16 130 -34 18 -37 18 -69 2z m89 -39 c31 -54 -21 -118 -78 -97 -32 13
-41 26 -41 63 0 43 27 68 69 64 26 -2 39 -10 50 -30z"/>
<path d="M6844 1185 c0 -49 1 -71 3 -48 2 23 2 64 0 90 -2 26 -3 8 -3 -42z"/>
<path d="M7460 1240 c0 -27 -2 -30 -19 -20 -50 26 -95 -5 -89 -61 4 -44 46
-71 79 -51 18 12 23 12 30 0 5 -8 9 22 9 75 0 48 -2 87 -5 87 -3 0 -5 -14 -5
-30z m-18 -37 c26 -23 23 -59 -6 -78 -48 -32 -100 32 -61 75 22 24 43 25 67 3z"/>
<path d="M8300 1185 c0 -50 4 -85 10 -85 6 0 10 15 10 33 l1 32 28 -32 c15
-18 31 -33 36 -33 5 0 -1 10 -12 23 -36 40 -37 47 -7 78 15 16 24 29 18 29 -5
0 -21 -14 -36 -32 l-27 -33 -1 53 c0 28 -4 52 -10 52 -6 0 -10 -35 -10 -85z"/>
<path d="M9774 1185 c0 -49 1 -71 3 -48 2 23 2 64 0 90 -2 26 -3 8 -3 -42z"/>
<path d="M4912 1183 l-2 -83 38 1 c36 1 36 2 7 8 -29 6 -30 8 -36 81 l-5 75
-2 -82z"/>
<path d="M5770 1180 l0 -80 43 1 42 2 -35 6 c-30 5 -35 10 -38 38 -3 29 -1 32
30 36 l33 4 -32 1 c-29 2 -33 5 -33 31 0 27 4 30 38 34 l37 4 -42 1 -43 2 0
-80z"/>
<path d="M8581 1248 c0 -9 -7 -19 -13 -21 -10 -4 -10 -6 0 -6 8 -1 12 -18 12
-49 0 -50 13 -72 40 -71 11 0 9 4 -7 16 -17 11 -23 25 -23 55 0 31 5 40 23 48
l22 9 -22 0 c-12 1 -24 9 -26 19 -4 15 -5 15 -6 0z"/>
<path d="M5016 1208 c-9 -12 -16 -33 -16 -45 0 -26 33 -63 56 -63 21 0 54 19
54 31 0 5 -11 2 -24 -6 -27 -18 -59 -9 -70 20 -4 12 4 15 49 15 47 0 55 3 55
18 0 48 -76 70 -104 30z m72 0 c24 -24 13 -38 -28 -38 -26 0 -40 5 -40 13 0
18 21 37 40 37 9 0 21 -5 28 -12z"/>
<path d="M5166 1208 c-41 -58 17 -134 74 -98 9 6 17 5 22 -3 4 -7 8 20 8 58 0
39 -4 65 -8 58 -5 -8 -13 -9 -22 -3 -26 16 -58 11 -74 -12z m78 -4 c22 -22 20
-60 -5 -78 -23 -16 -47 -12 -66 12 -18 22 -16 39 7 62 24 24 43 25 64 4z"/>
<path d="M5321 1165 c2 -67 2 -68 8 -21 5 34 14 53 32 67 13 10 19 19 14 19
-6 0 -17 -6 -23 -12 -10 -10 -15 -10 -22 2 -7 10 -9 -8 -9 -55z"/>
<path d="M5411 1160 c2 -63 2 -64 8 -19 15 104 80 108 92 7 l6 -53 2 56 c1 67
-10 80 -67 76 l-42 -2 1 -65z"/>
<path d="M6203 1224 c-30 -13 -6 -64 29 -64 23 0 35 -27 20 -42 -8 -8 -19 -8
-38 1 -24 11 -26 10 -14 -3 28 -35 97 -5 73 32 -5 10 -19 18 -31 20 -25 4 -46
27 -37 42 9 14 38 13 54 -2 11 -11 13 -10 9 2 -5 15 -43 23 -65 14z"/>
<path d="M6326 1211 c-26 -29 -18 -82 17 -101 24 -13 30 -13 55 0 55 31 34
120 -28 120 -15 0 -35 -9 -44 -19z m76 -8 c26 -23 23 -59 -7 -79 -23 -15 -27
-15 -50 0 -29 19 -32 51 -8 78 20 22 41 23 65 1z"/>
<path d="M6489 1220 c-34 -20 -31 -88 5 -112 20 -14 53 -8 71 12 10 11 13 20
7 20 -7 0 -12 -4 -12 -9 0 -16 -38 -23 -60 -11 -27 15 -28 75 -1 90 27 14 37
13 56 -6 9 -9 18 -14 21 -11 3 2 -2 12 -11 21 -18 18 -51 20 -76 6z"/>
<path d="M6623 1165 c0 -38 2 -53 4 -32 2 20 2 52 0 70 -2 17 -4 1 -4 -38z"/>
<path d="M6687 1212 c-49 -54 21 -150 71 -100 10 10 15 10 22 -2 7 -10 10 7
10 55 0 39 -4 65 -8 58 -5 -8 -13 -9 -22 -3 -24 15 -56 11 -73 -8z m75 -9 c26
-23 23 -59 -6 -78 -48 -32 -100 32 -61 75 22 24 43 25 67 3z"/>
<path d="M6961 1160 c2 -63 2 -64 8 -19 4 26 13 54 20 63 32 38 70 5 73 -62
l1 -47 6 54 c7 60 28 84 59 65 11 -7 19 -29 23 -65 l6 -54 1 56 c1 31 -3 60
-10 67 -15 15 -51 15 -66 0 -8 -8 -15 -8 -25 0 -8 7 -32 11 -55 9 l-42 -2 1
-65z"/>
<path d="M7216 1208 c-9 -12 -16 -33 -16 -45 0 -26 33 -63 56 -63 21 0 54 19
54 31 0 5 -11 2 -24 -6 -27 -18 -59 -9 -70 20 -4 12 4 15 49 15 47 0 55 3 55
18 0 48 -76 70 -104 30z m72 0 c24 -24 13 -38 -28 -38 -26 0 -40 5 -40 13 0
18 21 37 40 37 9 0 21 -5 28 -12z"/>
<path d="M7523 1165 c0 -38 2 -53 4 -32 2 20 2 52 0 70 -2 17 -4 1 -4 -38z"/>
<path d="M7586 1208 c-41 -58 17 -134 74 -98 9 6 17 5 22 -3 4 -7 8 20 8 58 0
39 -4 65 -8 58 -5 -8 -13 -9 -22 -3 -26 16 -58 11 -74 -12z m78 -4 c22 -22 20
-60 -5 -78 -23 -16 -47 -12 -66 12 -18 22 -16 39 7 62 24 24 43 25 64 4z"/>
<path d="M7800 1165 c0 -37 4 -65 10 -65 6 0 10 22 10 49 0 54 17 77 49 66 21
-6 28 -23 34 -85 3 -29 4 -27 5 12 4 102 82 108 82 6 0 -26 5 -48 10 -48 16 0
12 83 -6 108 -17 24 -53 29 -72 10 -9 -9 -15 -9 -24 0 -7 7 -21 12 -33 12 -12
0 -26 -5 -33 -12 -9 -9 -12 -9 -12 0 0 7 -4 12 -10 12 -6 0 -10 -28 -10 -65z"/>
<path d="M8072 1223 c-7 -3 -18 -17 -23 -31 -21 -56 31 -109 80 -82 14 7 21 7
21 0 0 -5 5 -10 10 -10 6 0 10 28 10 65 0 37 -4 65 -10 65 -5 0 -10 -5 -10
-12 0 -9 -3 -9 -12 0 -12 12 -43 15 -66 5z m59 -13 c29 -16 27 -78 -3 -89 -41
-15 -68 5 -68 51 0 39 34 57 71 38z"/>
<path d="M8210 1165 c0 -37 4 -65 10 -65 6 0 10 23 10 51 0 42 3 52 20 56 11
3 20 9 20 14 0 13 -14 11 -28 -3 -9 -9 -12 -9 -12 0 0 7 -4 12 -10 12 -6 0
-10 -28 -10 -65z"/>
<path d="M8437 1212 c-44 -48 1 -127 60 -106 15 5 28 15 31 22 3 10 -3 9 -22
-3 -24 -16 -28 -16 -51 -1 -39 25 -30 36 30 36 60 0 67 9 39 48 -19 27 -64 29
-87 4z m71 -4 c25 -25 13 -38 -33 -38 -49 0 -53 4 -28 32 19 21 44 23 61 6z"/>
<path d="M8660 1165 c0 -37 4 -65 10 -65 6 0 10 28 10 65 0 37 -4 65 -10 65
-6 0 -10 -28 -10 -65z"/>
<path d="M8721 1160 c2 -63 2 -64 8 -19 15 104 80 108 92 7 l6 -53 2 56 c1 67
-10 80 -67 76 l-42 -2 1 -65z"/>
<path d="M8886 1211 c-42 -47 12 -136 64 -103 28 17 32 15 28 -15 -4 -38 -49
-54 -78 -28 -21 19 -29 8 -8 -13 15 -15 53 -16 79 -2 17 9 19 22 19 98 0 48
-4 82 -8 75 -5 -8 -13 -9 -22 -3 -24 15 -56 11 -74 -9z m76 -8 c26 -23 23 -59
-6 -78 -48 -32 -100 32 -61 75 22 24 43 25 67 3z"/>
<path d="M9156 1208 c-9 -12 -16 -33 -16 -45 0 -26 33 -63 56 -63 21 0 54 19
54 31 0 5 -11 2 -24 -6 -27 -18 -59 -9 -70 20 -4 12 4 15 49 15 47 0 55 3 55
18 0 48 -76 70 -104 30z m72 0 c24 -24 13 -38 -28 -38 -26 0 -40 5 -40 13 0
18 21 37 40 37 9 0 21 -5 28 -12z"/>
<path d="M9302 1165 l1 -70 7 55 c4 30 3 62 -1 70 -5 9 -8 -14 -7 -55z"/>
<path d="M9324 1219 c-4 -8 1 -9 15 -4 34 11 51 -11 51 -66 0 -27 5 -49 10
-49 6 0 10 22 10 49 0 54 17 77 49 66 21 -6 28 -23 34 -85 3 -23 4 -16 5 20 1
32 -3 61 -10 68 -17 17 -53 15 -68 -3 -11 -13 -14 -13 -27 0 -17 18 -59 20
-69 4z"/>
<path d="M9557 1212 c-49 -54 21 -150 71 -100 10 10 15 10 22 -2 7 -10 10 7
10 55 0 39 -4 65 -8 58 -5 -8 -13 -9 -22 -3 -24 15 -56 11 -73 -8z m75 -9 c26
-23 23 -59 -6 -78 -48 -32 -100 32 -61 75 22 24 43 25 67 3z"/>
<path d="M9713 1165 c0 -38 2 -53 4 -32 2 20 2 52 0 70 -2 17 -4 1 -4 -38z"/>
<path d="M6076 1115 c-3 -9 -6 -22 -5 -28 0 -7 5 -1 10 12 5 13 8 26 5 28 -2
2 -6 -3 -10 -12z"/>
<path d="M9030 1106 c-15 -39 -12 -46 6 -13 9 16 13 31 10 34 -3 3 -10 -6 -16
-21z"/>
<path d="M9820 1110 c0 -5 5 -10 10 -10 6 0 10 5 10 10 0 6 -4 10 -10 10 -5 0
-10 -4 -10 -10z"/>
<path d="M9865 1110 c3 -5 8 -10 11 -10 2 0 4 5 4 10 0 6 -5 10 -11 10 -5 0
-7 -4 -4 -10z"/>
<path d="M9910 1110 c0 -5 5 -10 10 -10 6 0 10 5 10 10 0 6 -4 10 -10 10 -5 0
-10 -4 -10 -10z"/>
</g>
</svg>
